<?xml version="1.0" encoding="UTF-8" standalone="no"?>
<svg
   xmlns:dc="http://purl.org/dc/elements/1.1/"
   xmlns:cc="http://creativecommons.org/ns#"
   xmlns:rdf="http://www.w3.org/1999/02/22-rdf-syntax-ns#"
   xmlns:svg="http://www.w3.org/2000/svg"
   xmlns="http://www.w3.org/2000/svg"
   xmlns:sodipodi="http://sodipodi.sourceforge.net/DTD/sodipodi-0.dtd"
   xmlns:inkscape="http://www.inkscape.org/namespaces/inkscape"
   version="1.1"
   x="0px"
   y="0px"
   viewBox="0 0 612 816.90015"
   enable-background="new 0 0 512 512"
   xml:space="preserve"
   id="svg8"
   sodipodi:docname="color_quiz.svg"
   width="612"
   height="816.90015"
   inkscape:version="0.92.2 (5c3e80d, 2017-08-06)"><metadata
     id="metadata14"><rdf:RDF><cc:Work
         rdf:about=""><dc:format>image/svg+xml</dc:format><dc:type
           rdf:resource="http://purl.org/dc/dcmitype/StillImage" /><dc:title></dc:title></cc:Work></rdf:RDF></metadata><defs
     id="defs12" /><sodipodi:namedview
     pagecolor="#ffffff"
     bordercolor="#666666"
     borderopacity="1"
     objecttolerance="10"
     gridtolerance="10"
     guidetolerance="10"
     inkscape:pageopacity="0"
     inkscape:pageshadow="2"
     inkscape:window-width="640"
     inkscape:window-height="480"
     id="namedview10"
     showgrid="false"
     inkscape:snap-bbox="true"
     inkscape:snap-bbox-midpoints="true"
     inkscape:snap-center="true"
     inkscape:snap-intersection-paths="true"
     showguides="true"
     inkscape:guide-bbox="true"
     fit-margin-top="50"
     fit-margin-left="50"
     fit-margin-right="50"
     fit-margin-bottom="50"
     inkscape:zoom="0.97458263"
     inkscape:cx="-31.502665"
     inkscape:cy="458.71229"
     inkscape:current-layer="svg8"
     inkscape:snap-page="true"><sodipodi:guide
       position="306,744.06414"
       orientation="1,0"
       id="guide866"
       inkscape:locked="false" /></sodipodi:namedview><rect
     style="opacity:1;fill:#ffffff;fill-opacity:1;stroke:#ffffff;stroke-width:0.18897638;stroke-linecap:square;stroke-linejoin:bevel;stroke-miterlimit:4;stroke-dasharray:none;stroke-opacity:1;paint-order:normal"
     id="rect868"
     width="612"
     height="816.90015"
     x="0"
     y="0"
     rx="7.0866098"
     ry="7.0866098"
     inkscape:export-xdpi="109.77"
     inkscape:export-ydpi="109.77" /><path
     d="M 562,220.664 C 562,126.406 485.594,50 391.328,50 360.25,50 331.109,58.312 306,72.836 280.891,58.313 251.75,50 220.672,50 126.406,50 50,126.406 50,220.664 c 0,63.68 34.875,119.203 86.562,148.531 10.141,84.571 82.126,150.133 169.438,150.133 87.312,0 159.297,-65.562 169.438,-150.133 C 527.125,339.867 562,284.344 562,220.664 Z"
     id="path50"
     inkscape:connector-curvature="0" /><path
     d="m 160,380.219 c 18.859,7.172 39.297,11.109 60.672,11.109 31.078,0 60.219,-8.312 85.328,-22.836 25.109,14.523 54.25,22.836 85.328,22.836 21.375,0 41.812,-3.938 60.672,-11.109 -1.953,9.07 -4.75,17.945 -8.391,26.562 -7.516,17.781 -18.297,33.758 -32.016,47.477 -13.719,13.719 -29.688,24.492 -47.469,32.016 -18.406,7.781 -37.953,11.727 -58.125,11.727 -20.172,0 -39.719,-3.945 -58.125,-11.727 -17.781,-7.523 -33.75,-18.297 -47.469,-32.016 -13.719,-13.719 -24.5,-29.695 -32.016,-47.477 -3.639,-8.617 -6.436,-17.492 -8.389,-26.562 z"
     id="path48"
     style="fill:#0000ff;fill-opacity:1"
     inkscape:connector-curvature="0" /><path
     d="m 455.172,355.703 c -1.891,0.891 -3.797,1.75 -5.719,2.57 C 431.062,366.054 411.5,370 391.328,370 c -20.172,0 -39.719,-3.945 -58.109,-11.727 -2.453,-1.039 -4.859,-2.141 -7.25,-3.297 38.484,-30.219 63.656,-76.617 65.266,-128.953 7.234,5.039 14.047,10.727 20.359,17.047 13.719,13.719 24.5,29.695 32.016,47.469 7.781,18.398 11.719,37.953 11.719,58.125 -0.001,2.359 -0.048,4.703 -0.157,7.039 z"
     id="path46"
     style="fill:#00c000;fill-opacity:1"
     inkscape:connector-curvature="0" /><path
     d="m 369.828,213.625 c 0.109,2.336 0.172,4.68 0.172,7.039 0,20.172 -3.938,39.727 -11.719,58.117 -7.531,17.781 -18.297,33.758 -32.016,47.477 -6.297,6.297 -13.062,11.961 -20.266,16.977 -7.203,-5.016 -13.969,-10.68 -20.266,-16.977 C 272.014,312.539 261.249,296.563 253.717,278.781 245.938,260.391 242,240.836 242,220.664 c 0,-2.359 0.062,-4.703 0.172,-7.039 1.875,-0.891 3.781,-1.75 5.703,-2.57 18.406,-7.781 37.953,-11.727 58.125,-11.727 20.172,0 39.719,3.945 58.125,11.727 1.922,0.82 3.828,1.679 5.703,2.57 z"
     id="path44"
     style="fill:#ffffff"
     inkscape:connector-curvature="0" /><path
     d="m 306,178 c -21.359,0 -41.812,3.938 -60.656,11.109 1.953,-9.07 4.734,-17.945 8.375,-26.562 7.531,-17.781 18.297,-33.758 32.016,-47.477 6.297,-6.297 13.062,-11.961 20.266,-16.977 7.203,5.016 13.969,10.68 20.266,16.977 13.719,13.719 24.484,29.695 32.016,47.477 3.641,8.617 6.438,17.492 8.375,26.562 C 347.812,181.937 327.359,178 306,178 Z"
     id="path42"
     style="fill:#ff7f00;fill-opacity:1"
     inkscape:connector-curvature="0" /><path
     d="m 220.766,226.023 c 1.609,52.336 26.781,98.734 65.266,128.953 -2.391,1.156 -4.797,2.258 -7.25,3.297 -18.391,7.781 -37.938,11.727 -58.109,11.727 -20.171,0 -39.734,-3.945 -58.125,-11.727 -1.922,-0.82 -3.828,-1.68 -5.719,-2.57 -0.109,-2.336 -0.156,-4.68 -0.156,-7.039 0,-20.172 3.938,-39.727 11.719,-58.117 7.516,-17.781 18.297,-33.758 32.016,-47.477 6.311,-6.32 13.123,-12.008 20.358,-17.047 z"
     id="path40"
     style="fill:#cd00b6;fill-opacity:1"
     inkscape:connector-curvature="0" /><path
     d="m 286.031,86.352 c -34.734,27.266 -58.609,67.703 -64.125,113.781 -50.234,28.5 -84.578,81.75 -86.484,143.172 -7.234,-5.039 -14.031,-10.727 -20.344,-17.047 -13.734,-13.719 -24.5,-29.695 -32.016,-47.477 -7.781,-18.39 -11.734,-37.945 -11.734,-58.117 0,-20.172 3.953,-39.727 11.734,-58.117 7.516,-17.781 18.281,-33.758 32.016,-47.477 13.719,-13.719 29.688,-24.492 47.469,-32.016 18.391,-7.781 37.953,-11.727 58.125,-11.727 20.172,0 39.719,3.945 58.109,11.727 2.453,1.04 4.86,2.141 7.25,3.298 z"
     id="path38"
     style="fill:#ff0000"
     inkscape:connector-curvature="0" /><path
     d="m 528.938,162.547 c 7.781,18.391 11.734,37.945 11.734,58.117 0,20.172 -3.953,39.727 -11.734,58.117 -7.516,17.781 -18.281,33.758 -32.016,47.477 -6.312,6.32 -13.109,12.008 -20.344,17.047 -1.906,-61.422 -36.25,-114.672 -86.484,-143.172 -5.516,-46.078 -29.391,-86.516 -64.125,-113.781 2.391,-1.156 4.797,-2.258 7.25,-3.297 18.391,-7.781 37.938,-11.727 58.109,-11.727 20.171,0 39.734,3.945 58.125,11.727 17.781,7.523 33.75,18.297 47.469,32.016 13.734,13.718 24.5,29.695 32.016,47.476 z"
     id="path2"
     style="fill:#ffff00"
     inkscape:connector-curvature="0" /><text
     xml:space="preserve"
     style="font-style:normal;font-variant:normal;font-weight:normal;font-stretch:normal;font-size:120px;line-height:1.25;font-family:'Segoe UI';-inkscape-font-specification:'Segoe UI';text-align:center;letter-spacing:0px;word-spacing:0px;writing-mode:lr-tb;text-anchor:middle;fill:#000000;fill-opacity:1;stroke:none"
     x="303.68896"
     y="304.48169"
     id="text18"><tspan
       sodipodi:role="line"
       id="tspan16"
       x="303.68896"
       y="304.48169"
       style="font-style:normal;font-variant:normal;font-weight:normal;font-stretch:normal;font-family:'Arial Rounded MT Bold';-inkscape-font-specification:'Arial Rounded MT Bold, '">?</tspan></text>
<text
     xml:space="preserve"
     style="font-style:normal;font-variant:normal;font-weight:normal;font-stretch:normal;font-size:120px;line-height:1;font-family:'Segoe UI';-inkscape-font-specification:'Segoe UI';text-align:center;letter-spacing:0px;word-spacing:0px;writing-mode:lr-tb;text-anchor:middle;fill:#000000;fill-opacity:1;stroke:none"
     x="303.2168"
     y="638.94153"
     id="text862"><tspan
       sodipodi:role="line"
       id="tspan860"
       x="303.2168"
       y="638.94153"
       style="font-style:normal;font-variant:normal;font-weight:normal;font-stretch:normal;font-family:'Arial Rounded MT Bold';-inkscape-font-specification:'Arial Rounded MT Bold, '">Color</tspan><tspan
       sodipodi:role="line"
       x="303.2168"
       y="758.98999"
       id="tspan864"
       style="font-style:normal;font-variant:normal;font-weight:normal;font-stretch:normal;font-family:'Arial Rounded MT Bold';-inkscape-font-specification:'Arial Rounded MT Bold, '">Quiz</tspan></text>
</svg>