<?xml version="1.0" encoding="UTF-8" standalone="no"?>
<svg
   xmlns:dc="http://purl.org/dc/elements/1.1/"
   xmlns:cc="http://creativecommons.org/ns#"
   xmlns:rdf="http://www.w3.org/1999/02/22-rdf-syntax-ns#"
   xmlns:svg="http://www.w3.org/2000/svg"
   xmlns="http://www.w3.org/2000/svg"
   xmlns:sodipodi="http://sodipodi.sourceforge.net/DTD/sodipodi-0.dtd"
   xmlns:inkscape="http://www.inkscape.org/namespaces/inkscape"
   version="1.1"
   x="0px"
   y="0px"
   viewBox="0 0 999.99999 1000"
   enable-background="new 0 0 100 100"
   xml:space="preserve"
   id="svg8"
   sodipodi:docname="ball.svg"
   width="1000"
   height="1000"
   inkscape:version="0.92.2 (5c3e80d, 2017-08-06)"><metadata
     id="metadata14"><rdf:RDF><cc:Work
         rdf:about=""><dc:format>image/svg+xml</dc:format><dc:type
           rdf:resource="http://purl.org/dc/dcmitype/StillImage" /><dc:title /></cc:Work></rdf:RDF></metadata><defs
     id="defs12" /><sodipodi:namedview
     pagecolor="#ffffff"
     bordercolor="#666666"
     borderopacity="1"
     objecttolerance="10"
     gridtolerance="10"
     guidetolerance="10"
     inkscape:pageopacity="0"
     inkscape:pageshadow="2"
     inkscape:window-width="640"
     inkscape:window-height="480"
     id="namedview10"
     showgrid="false"
     fit-margin-top="0"
     fit-margin-left="0"
     fit-margin-right="0"
     fit-margin-bottom="0"
     inkscape:zoom="0.118"
     inkscape:cx="-1017.7346"
     inkscape:cy="-1201.7504"
     inkscape:current-layer="svg8" /><path
     d="M 297.64114,664.75556 C 197.84225,664.75556 101.54332,644.53333 11.24432,604.9 3.8666237,570.64444 0,535.37778 0,499.92222 0,224.26667 224.26417,0 499.91667,0 683.14797,0 850.60166,99.58889 938.56735,260.14444 823.27974,506.12222 572.41586,664.75556 297.64114,664.75556 Z m -0.0333,139.48888 c -72.56586,0 -144.16506,-8.98888 -213.297626,-26.73333 C 176.50915,915.31111 333.34074,1000 499.92778,1000 775.66916,1000 1000,775.66667 1000,499.92222 c 0,-20.13333 -1.28887,-40.58889 -3.75551,-61.08889 C 839.97956,664.94444 575.13805,804.24444 297.6078,804.24444 Z M 990.93347,404.88889 c -7.9888,-41.23333 -21.0331,-81.1 -38.99956,-118.86667 -122.34309,244.96667 -376.51804,402 -654.29273,402 -97.16559,0 -191.08677,-18.68889 -279.685784,-55.12222 11.010989,40.34444 27.177476,79.04444 48.177243,115.48889 C 140.73177,769.98889 218.57535,781 297.6078,781 575.92693,780.9889 841.11288,636.97778 990.93343,404.88889 Z"
     id="path2"
     inkscape:connector-curvature="0"
     style="stroke-width:11.1110487" /></svg>