<?xml version="1.0" encoding="UTF-8" standalone="no"?>
<svg
   xmlns:dc="http://purl.org/dc/elements/1.1/"
   xmlns:cc="http://creativecommons.org/ns#"
   xmlns:rdf="http://www.w3.org/1999/02/22-rdf-syntax-ns#"
   xmlns:svg="http://www.w3.org/2000/svg"
   xmlns="http://www.w3.org/2000/svg"
   xmlns:sodipodi="http://sodipodi.sourceforge.net/DTD/sodipodi-0.dtd"
   xmlns:inkscape="http://www.inkscape.org/namespaces/inkscape"
   version="1.1"
   x="0px"
   y="0px"
   viewBox="0 0 1000 999.97675"
   enable-background="new 0 0 100 100"
   xml:space="preserve"
   id="svg8"
   sodipodi:docname="ball-o.svg"
   width="1000"
   height="999.97675"
   inkscape:version="0.92.2 (5c3e80d, 2017-08-06)"><metadata
     id="metadata14"><rdf:RDF><cc:Work
         rdf:about=""><dc:format>image/svg+xml</dc:format><dc:type
           rdf:resource="http://purl.org/dc/dcmitype/StillImage" /></cc:Work></rdf:RDF></metadata><defs
     id="defs12" /><sodipodi:namedview
     pagecolor="#ffffff"
     bordercolor="#666666"
     borderopacity="1"
     objecttolerance="10"
     gridtolerance="10"
     guidetolerance="10"
     inkscape:pageopacity="0"
     inkscape:pageshadow="2"
     inkscape:window-width="640"
     inkscape:window-height="480"
     id="namedview10"
     showgrid="false"
     inkscape:zoom="0.236"
     inkscape:cx="279.30761"
     inkscape:cy="-759.96918"
     inkscape:current-layer="svg8" /><path
     d="M 731.37445,56.685517 C 486.94294,-70.889203 184.27381,24.167487 56.681741,268.61634 -70.892984,513.0652 24.181057,815.73432 268.62991,943.2917 513.07876,1070.8664 815.73054,975.80973 943.32261,731.34354 1070.88,486.94672 975.84064,184.26025 731.37445,56.685517 Z M 118.16249,300.75283 c 5.09883,-9.78143 10.63123,-19.1813 16.37175,-28.42509 58.37636,146.39182 165.50375,265.45116 307.1436,339.34946 141.72657,73.98501 300.65735,93.51317 454.17712,57.56124 -4.30105,10.0936 -8.91427,20.11782 -14.09981,30.0033 -5.68849,10.97809 -11.93195,21.5226 -18.4529,31.78963 C 709.95591,766.41098 549.32552,746.10239 409.57605,673.1406 269.80923,600.21351 161.34643,480.07891 102.64056,334.05129 c 4.69993,-11.1862 9.79876,-22.32038 15.52193,-33.29846 z M 699.25531,118.16627 C 874.7486,209.75438 960.71759,406.12858 920.88084,590.91769 771.12448,637.06727 613.14757,622.93277 473.77964,550.19645 334.4464,477.47747 232.46986,355.92074 184.70738,206.66733 313.51346,68.339977 523.76202,26.595507 699.25531,118.16627 Z M 300.69702,881.82829 C 133.82318,794.74936 47.906209,612.90855 74.094061,436.40937 142.98025,563.221 248.16523,667.20932 377.49159,734.69073 506.81796,802.20682 652.27326,829.00167 795.6821,813.01148 665.88747,935.43535 467.57087,968.92458 300.69702,881.82829 Z"
     id="path2"
     inkscape:connector-curvature="0"
     style="stroke-width:17.34294701" /></svg>