<?xml version="1.0" encoding="UTF-8" standalone="no"?>
<svg
   xmlns:dc="http://purl.org/dc/elements/1.1/"
   xmlns:cc="http://creativecommons.org/ns#"
   xmlns:rdf="http://www.w3.org/1999/02/22-rdf-syntax-ns#"
   xmlns:svg="http://www.w3.org/2000/svg"
   xmlns="http://www.w3.org/2000/svg"
   xmlns:sodipodi="http://sodipodi.sourceforge.net/DTD/sodipodi-0.dtd"
   xmlns:inkscape="http://www.inkscape.org/namespaces/inkscape"
   version="1.1"
   x="0px"
   y="0px"
   viewBox="0 0 1000 588.0478"
   enable-background="new 0 0 100 100"
   xml:space="preserve"
   id="svg66"
   sodipodi:docname="bicycle.svg"
   width="1000"
   height="588.04779"
   inkscape:version="0.92.2 (5c3e80d, 2017-08-06)"><metadata
     id="metadata72"><rdf:RDF><cc:Work
         rdf:about=""><dc:format>image/svg+xml</dc:format><dc:type
           rdf:resource="http://purl.org/dc/dcmitype/StillImage" /><dc:title></dc:title></cc:Work></rdf:RDF></metadata><defs
     id="defs70" /><sodipodi:namedview
     pagecolor="#ffffff"
     bordercolor="#666666"
     borderopacity="1"
     objecttolerance="10"
     gridtolerance="10"
     guidetolerance="10"
     inkscape:pageopacity="0"
     inkscape:pageshadow="2"
     inkscape:window-width="640"
     inkscape:window-height="480"
     id="namedview68"
     showgrid="false"
     fit-margin-top="0"
     fit-margin-left="0"
     fit-margin-right="0"
     fit-margin-bottom="0"
     inkscape:zoom="0.472"
     inkscape:cx="1354.27"
     inkscape:cy="-341.03903"
     inkscape:current-layer="svg66" /><g
     id="g61"
     transform="scale(12.48455)"><path
       d="m 18.636,37.316043 4.68,8.104 c 1.496,-0.885 2.799,-2.078 3.804,-3.517 l -7.927,-4.576 z"
       id="path2"
       inkscape:connector-curvature="0"
       style="fill:none" /><path
       d="m 17.667,37.298043 v 9.798 c 1.754,-0.074 3.43,-0.524 4.938,-1.286 l -4.914,-8.512 z"
       id="path4"
       inkscape:connector-curvature="0"
       style="fill:none" /><path
       d="m 21.508,23.607043 c -1.231,-0.478 -2.522,-0.732 -3.841,-0.788 v 8.603 l 4.374,-7.609 z"
       id="path6"
       inkscape:connector-curvature="0"
       style="fill:none" /><path
       d="m 26.638,22.464043 0.328,0.264 c 3.398,2.73 5.525,6.78 5.832,11.11 l 0.032,0.447 3.214,0.064 c 0.143,-0.544 0.377,-1.051 0.691,-1.499 l -7.775,-14.425 z"
       id="path8"
       inkscape:connector-curvature="0"
       style="fill:none" /><path
       d="m 27.835,29.178043 c -0.648,-1.199 -1.488,-2.295 -2.515,-3.228 l -0.451,-0.412 -4.602,8.009 z"
       id="path10"
       inkscape:connector-curvature="0"
       style="fill:none" /><path
       d="m 28.194,29.905043 -7.183,4.146 8.284,0.166 -0.06,-0.554 c -0.14,-1.314 -0.502,-2.578 -1.041,-3.758 z"
       id="path12"
       inkscape:connector-curvature="0"
       style="fill:none" /><path
       d="m 27.558,41.224043 c 0.572,-0.95 1.031,-1.984 1.332,-3.093 l 0.164,-0.608 -8.186,-0.161 z"
       id="path14"
       inkscape:connector-curvature="0"
       style="fill:none" /><path
       d="m 16.857,47.102043 v -9.842 l -4.983,8.632 c 1.514,0.734 3.199,1.165 4.983,1.21 z"
       id="path16"
       inkscape:connector-curvature="0"
       style="fill:none" /><path
       d="m 15.559,35.231043 -9.399,-5.427 c -0.738,1.566 -1.163,3.31 -1.163,5.153 0,0.13 0.017,0.256 0.02,0.385 h 10.521 c 0.005,-0.037 0.011,-0.074 0.021,-0.111 z"
       id="path18"
       inkscape:connector-curvature="0"
       style="fill:none" /><path
       d="m 15.986,34.345043 -5.508,-9.539 c -1.639,1.082 -3.001,2.548 -3.957,4.271 l 9.381,5.416 z"
       id="path20"
       inkscape:connector-curvature="0"
       style="fill:none" /><path
       d="m 16.452,33.534043 0.404,-0.704 v -10.02 c -2.063,0.051 -3.999,0.615 -5.687,1.575 z"
       id="path22"
       inkscape:connector-curvature="0"
       style="fill:none" /><path
       d="m 39.493,30.989043 c 0.188,-0.043 0.379,-0.079 0.573,-0.1 v -3.041 h -0.953 c -0.382,0 -0.692,-0.31 -0.692,-0.692 0,-0.382 0.311,-0.692 0.692,-0.692 h 2.868 c 0.382,0 0.691,0.31 0.691,0.692 0,0.382 -0.31,0.692 -0.691,0.692 h -0.953 v 3.041 c 0.201,0.021 0.396,0.059 0.588,0.104 l 9.065,-13.698 H 32.113 Z"
       id="path24"
       inkscape:connector-curvature="0"
       style="fill:none" /><path
       d="m 16.106,36.882043 -8.849,5.109 c 1.026,1.439 2.355,2.646 3.896,3.525 l 4.976,-8.617 c -0.009,-0.005 -0.016,-0.01 -0.023,-0.017 z"
       id="path26"
       inkscape:connector-curvature="0"
       style="fill:none" /><path
       d="m 15.629,36.180043 c -0.004,-0.01 -0.005,-0.02 -0.009,-0.027 H 5.058 c 0.184,1.88 0.809,3.629 1.754,5.161 l 8.833,-5.099 z"
       id="path28"
       inkscape:connector-curvature="0"
       style="fill:none" /><path
       d="m 60.617,45.638043 c 1.477,0.709 3.109,1.127 4.838,1.184 v -9.356 c -0.036,-0.007 -0.074,-0.007 -0.109,-0.017 z"
       id="path30"
       inkscape:connector-curvature="0"
       style="fill:none" /><path
       d="m 67.029,36.961043 4.795,8.307 c 1.505,-0.851 2.807,-2.015 3.826,-3.4 l -8.584,-4.956 c -0.014,0.015 -0.024,0.034 -0.037,0.049 z"
       id="path32"
       inkscape:connector-curvature="0"
       style="fill:none" /><path
       d="m 72.046,24.230043 c -1.707,-1.013 -3.674,-1.619 -5.78,-1.688 v 10.665 l 0.295,0.521 z"
       id="path34"
       inkscape:connector-curvature="0"
       style="fill:none" /><path
       d="m 66.266,37.415043 v 9.406 c 1.728,-0.059 3.362,-0.476 4.837,-1.185 l -4.765,-8.251 c -0.024,0.01 -0.047,0.023 -0.072,0.03 z"
       id="path36"
       inkscape:connector-curvature="0"
       style="fill:none" /><path
       d="m 67.471,36.211043 8.64,4.987 c 0.954,-1.492 1.59,-3.204 1.812,-5.044 H 67.477 c -0.003,0.018 -0.001,0.039 -0.006,0.057 z"
       id="path38"
       inkscape:connector-curvature="0"
       style="fill:none" /><path
       d="m 67.428,35.345043 h 10.56 c 0.012,-0.222 0.033,-0.439 0.033,-0.663 0,-1.738 -0.374,-3.39 -1.034,-4.889 l -9.569,5.526 c 0.002,0.008 0.007,0.017 0.01,0.026 z"
       id="path42"
       inkscape:connector-curvature="0"
       style="fill:none" /><path
       d="m 64.61,36.941043 -8.536,4.928 c 1.019,1.387 2.32,2.549 3.823,3.399 l 4.766,-8.255 c -0.02,-0.02 -0.036,-0.05 -0.053,-0.072 z"
       id="path44"
       inkscape:connector-curvature="0"
       style="fill:none" /><path
       d="M 64.124,36.155043 H 53.798 c 0.224,1.84 0.859,3.552 1.812,5.046 l 8.568,-4.947 z"
       id="path46"
       inkscape:connector-curvature="0"
       style="fill:none" /><path
       d="m 67.051,34.595043 9.583,-5.533 c -0.924,-1.766 -2.269,-3.279 -3.901,-4.403 l -5.709,9.888 z"
       id="path48"
       inkscape:connector-curvature="0"
       style="fill:none" /><path
       d="m 63.334,34.758043 -8.596,-4.963 c -0.675,1.528 -1.038,3.192 -1.038,4.887 0,0.224 0.021,0.441 0.032,0.664 h 9.934 z"
       id="path50"
       inkscape:connector-curvature="0"
       style="fill:none" /><path
       d="m 58.03,25.374043 -0.455,0.426 c -1.016,0.945 -1.84,2.059 -2.474,3.268 l 7.449,4.301 z"
       id="path52"
       inkscape:connector-curvature="0"
       style="fill:none" /><path
       d="m 60.833,23.604043 4.622,8.171 v -9.236 c -1.402,0.049 -2.781,0.328 -4.101,0.856 z"
       id="path54"
       inkscape:connector-curvature="0"
       style="fill:none" /><path
       d="m 64.399,13.942043 c -2.191,0 -4.331,0.459 -6.358,1.365 l -0.406,0.182 -5.588,-9.8729996 -0.006,-0.013 h 2.898 c 0.028,0 0.053,-0.005 0.082,-0.008 0.062,-0.002 0.123,-0.006 0.185,-0.019 0.018,-0.003 0.034,-0.009 0.05,-0.013 0.146,-0.033 0.288,-0.085 0.422,-0.168 l 4.585,-2.857 c 0.645,-0.401 0.841,-1.248 0.44,-1.89100001 -0.4,-0.644 -1.248,-0.84 -1.891,-0.439 L 54.559,2.8570434 h -5.022 c -0.322,0 -0.617,0.116 -0.852,0.304 -0.247,0.155 -0.462,0.366 -0.61,0.621 -0.285,0.49 -0.277,1.05 0.021,1.578 l 2.028,3.581 H 28.866 l -1.438,-2.668 c 3.059,-0.362 6.368,-1.004 6.368,-2.034 0,-1.124 -0.911,-2.035 -2.035,-2.035 l -9.95,-0.533 c -1.123,0 -2.16,1.444 -2.16,2.568 0,1.124 1.146,2.422 2.811,2.422 0.201,0 0.702,-0.021 1.381,-0.064 l 1.734,3.217 -0.07,0.2039996 c -0.028,0.081 -0.05,0.162 -0.064,0.243 l -0.016,0.081 -3.084,5.364 -0.402,-0.175 c -1.994,-0.874 -4.096,-1.314 -6.243,-1.314 -8.657,0 -15.698,7.042 -15.698,15.699 0,8.657 7.041,15.699 15.698,15.699 7.472,0 13.942,-5.322 15.386,-12.654 l 0.079,-0.406 3.794,0.077 c 0.707,1.354 2.059,2.32 3.648,2.483 v 2.487 h -0.953 c -0.383,0 -0.691,0.31 -0.691,0.691 0,0.381 0.311,0.693 0.691,0.693 h 2.868 c 0.383,0 0.691,-0.312 0.691,-0.693 0,-0.381 -0.311,-0.691 -0.691,-0.691 h -0.954 v -2.487 c 2.346,-0.241 4.177,-2.224 4.177,-4.633 0,-0.995 -0.316,-1.918 -0.848,-2.675 l 9.651,-14.583 2.269,4.008 -0.321,0.262 c -3.68,3.002 -5.792,7.43 -5.792,12.149 0,8.657 7.042,15.698 15.698,15.698 8.657,0 15.699,-7.041 15.699,-15.698 -0.001,-8.658 -7.044,-15.701 -15.7,-15.701 z m -55.382,5.824 5.508,9.539 -0.084,0.148 -9.381,-5.416 c 0.956,-1.723 2.318,-3.189 3.957,-4.271 z m -5.482,10.151 c 0,-1.844 0.425,-3.587 1.163,-5.153 l 9.399,5.427 c -0.01,0.037 -0.016,0.074 -0.022,0.111 H 3.555 c -0.003,-0.129 -0.02,-0.255 -0.02,-0.385 z m 0.062,1.196 h 10.562 c 0.004,0.008 0.005,0.018 0.009,0.027 l 0.016,0.035 -8.833,5.099 c -0.946,-1.532 -1.571,-3.281 -1.754,-5.161 z m 2.199,5.839 8.849,-5.109 c 0.007,0.007 0.015,0.012 0.022,0.018 l -4.976,8.617 c -1.539,-0.881 -2.869,-2.087 -3.895,-3.526 z m 9.6,5.11 c -1.783,-0.045 -3.469,-0.476 -4.983,-1.21 l 4.983,-8.632 z m 0,-14.273 -0.404,0.704 -5.282,-9.148 c 1.688,-0.96 3.623,-1.524 5.687,-1.575 v 10.019 z m 8.012,-7.291 0.451,0.412 c 1.026,0.933 1.866,2.028 2.515,3.228 l -7.568,4.369 z m -7.202,-2.719 c 1.318,0.056 2.609,0.311 3.841,0.788 l 0.533,0.205 -4.374,7.609 z m 0,24.277 v -9.798 h 0.023 l 4.914,8.512 c -1.507,0.762 -3.183,1.212 -4.937,1.286 z m 5.649,-1.676 -4.68,-8.104 0.557,0.012 7.927,4.576 c -1.006,1.438 -2.308,2.631 -3.804,3.516 z m 5.574,-7.289 c -0.301,1.108 -0.76,2.143 -1.332,3.093 l -6.689,-3.862 8.186,0.161 z m -7.879,-4.08 7.183,-4.146 c 0.539,1.181 0.901,2.444 1.042,3.759 l 0.06,0.554 z m 15.033,0.299 -3.214,-0.064 -0.032,-0.447 c -0.307,-4.33 -2.434,-8.38 -5.832,-11.11 l -0.328,-0.264 2.322,-4.039 7.775,14.426 c -0.314,0.447 -0.548,0.954 -0.691,1.498 z m 5.572,-3.357 c -0.192,-0.046 -0.387,-0.084 -0.588,-0.104 v -3.041 h 0.953 c 0.382,0 0.691,-0.31 0.691,-0.692 0,-0.382 -0.31,-0.692 -0.691,-0.692 h -2.868 c -0.382,0 -0.692,0.311 -0.692,0.692 0,0.383 0.311,0.692 0.692,0.692 h 0.953 v 3.041 c -0.194,0.021 -0.385,0.057 -0.573,0.1 l -7.381,-13.693 H 49.22 Z m 15.958,-5.193 0.455,-0.426 4.521,7.994 -7.449,-4.301 c 0.634,-1.208 1.458,-2.322 2.473,-3.267 z m -3.874,8.882 c 0,-1.694 0.363,-3.358 1.038,-4.887 l 8.596,4.963 0.332,0.588 h -9.934 c -0.011,-0.223 -0.032,-0.44 -0.032,-0.664 z m 0.098,1.473 h 10.326 l 0.055,0.099 -8.568,4.947 c -0.954,-1.495 -1.589,-3.207 -1.813,-5.046 z m 2.275,5.713 8.536,-4.928 c 0.018,0.022 0.033,0.052 0.053,0.072 l -4.766,8.255 c -1.502,-0.85 -2.804,-2.012 -3.823,-3.399 z m 9.382,4.954 c -1.729,-0.057 -3.361,-0.475 -4.838,-1.184 l 4.729,-8.189 c 0.035,0.01 0.073,0.01 0.109,0.017 z m 0,-15.047 -4.622,-8.171 0.521,-0.209 c 1.319,-0.528 2.698,-0.808 4.101,-0.856 z m 11.179,-2.713 -9.583,5.533 -0.027,-0.049 5.709,-9.888 c 1.632,1.125 2.977,2.638 3.901,4.404 z m -10.368,-6.521 c 2.106,0.069 4.073,0.676 5.78,1.688 l -5.485,9.498 -0.295,-0.521 z m 0,24.281 v -9.406 c 0.025,-0.008 0.048,-0.021 0.072,-0.029 l 4.765,8.251 c -1.475,0.708 -3.11,1.125 -4.837,1.184 z m 5.557,-1.554 -4.795,-8.307 c 0.014,-0.016 0.023,-0.034 0.037,-0.05 l 8.584,4.956 c -1.019,1.386 -2.321,2.55 -3.826,3.401 z m 4.288,-4.069 -8.64,-4.987 c 0.005,-0.019 0.003,-0.039 0.006,-0.057 h 10.446 c -0.223,1.839 -0.858,3.551 -1.812,5.044 z m 1.91,-6.517 c 0,0.224 -0.021,0.441 -0.033,0.663 h -10.56 c -0.003,-0.009 -0.008,-0.018 -0.011,-0.025 l 9.569,-5.526 c 0.661,1.498 1.035,3.15 1.035,4.888 z"
       id="path58"
       inkscape:connector-curvature="0" /></g></svg>