<?xml version="1.0" encoding="UTF-8" standalone="no"?>
<svg
   xmlns:dc="http://purl.org/dc/elements/1.1/"
   xmlns:cc="http://creativecommons.org/ns#"
   xmlns:rdf="http://www.w3.org/1999/02/22-rdf-syntax-ns#"
   xmlns:svg="http://www.w3.org/2000/svg"
   xmlns="http://www.w3.org/2000/svg"
   xmlns:sodipodi="http://sodipodi.sourceforge.net/DTD/sodipodi-0.dtd"
   xmlns:inkscape="http://www.inkscape.org/namespaces/inkscape"
   version="1.1"
   x="0px"
   y="0px"
   viewBox="0 0 1000 558.8396"
   enable-background="new 0 0 100 100"
   xml:space="preserve"
   id="svg14"
   sodipodi:docname="bicycle-o.svg"
   width="1000"
   height="558.8396"
   inkscape:version="0.92.2 (5c3e80d, 2017-08-06)"><metadata
     id="metadata20"><rdf:RDF><cc:Work
         rdf:about=""><dc:format>image/svg+xml</dc:format><dc:type
           rdf:resource="http://purl.org/dc/dcmitype/StillImage" /></cc:Work></rdf:RDF></metadata><defs
     id="defs18" /><sodipodi:namedview
     pagecolor="#ffffff"
     bordercolor="#666666"
     borderopacity="1"
     objecttolerance="10"
     gridtolerance="10"
     guidetolerance="10"
     inkscape:pageopacity="0"
     inkscape:pageshadow="2"
     inkscape:window-width="640"
     inkscape:window-height="480"
     id="namedview16"
     showgrid="false"
     inkscape:zoom="2.6700352"
     inkscape:cx="133.79528"
     inkscape:cy="-7.3124723"
     inkscape:current-layer="svg14" /><g
     id="g8"
     transform="matrix(11.36312,0,0,11.350223,-68.144631,-288.08001)"><path
       d="m 78.453,43.521 c -2.05,0 -4.008,0.403 -5.802,1.127 l -5.668,-9.671 0.86,-2.298 0.338,-0.93 h 0.038 c 0,0 0.033,-10e-4 0.095,-0.005 l 2.47,-0.017 c 1.75,0 3.173,-1.423 3.173,-3.173 0,-1.75 -1.423,-3.173 -3.173,-3.173 h -13.01 c -1.75,0 -3.173,1.423 -3.173,3.173 0,1.75 1.424,3.173 3.173,3.173 l 4.262,0.018 c -0.002,10e-4 -0.002,0.002 -0.004,0.004 h 0.019 c -0.002,0.017 0.002,0.017 0.01,0 h 0.013 l -0.328,0.93 -0.178,0.476 H 35.403 v -1.23 h 3.061 c 1.225,0 2.221,-0.996 2.221,-2.221 0,-1.225 -0.996,-2.221 -2.221,-2.221 h -6.558 c -1.113,0 -2.058,0.835 -2.198,1.943 l -0.003,0.026 -0.002,0.026 -0.009,0.128 -0.01,0.119 -0.002,0.017 -10e-4,0.017 c -0.001,0.014 -0.001,0.084 10e-4,0.179 0.002,0.081 0.005,0.195 0.005,0.272 -0.001,0.123 0.002,0.571 0.004,0.725 v 5.249 l -3.06,8.193 c -1.595,-0.554 -3.304,-0.858 -5.085,-0.858 -8.574,0 -15.549,6.975 -15.549,15.549 0,8.574 6.975,15.549 15.549,15.549 8.573,0 15.549,-6.975 15.549,-15.549 0,-4.718 -2.116,-8.95 -5.445,-11.804 l 0.729,-1.951 15.495,11.401 c -0.274,0.794 -0.413,1.618 -0.413,2.459 0,4.199 3.416,7.616 7.616,7.616 0.277,0 0.557,-0.017 0.84,-0.05 -0.329,0.39 -0.524,0.891 -0.524,1.425 0,1.225 0.996,2.221 2.221,2.221 h 5.289 c 1.225,0 2.221,-0.996 2.221,-2.221 0,-1.225 -0.996,-2.221 -2.221,-2.221 h -2.246 l -0.072,-0.154 10e-4,-0.001 -0.44,-0.945 c 0.968,-0.866 1.698,-1.962 2.122,-3.184 h 0.856 c 1.238,7.344 7.638,12.957 15.328,12.957 8.574,0 15.549,-6.975 15.549,-15.549 0,-8.574 -6.975,-15.546 -15.548,-15.546 z m -45.8,15.549 c 0,6.134 -4.972,11.106 -11.106,11.106 -6.134,0 -11.106,-4.972 -11.106,-11.106 0,-6.134 4.972,-11.106 11.106,-11.106 1.192,0 2.339,0.19 3.415,0.537 l -2.275,5.272 c -0.363,-0.077 -0.739,-0.119 -1.125,-0.119 -2.991,0 -5.416,2.425 -5.416,5.416 0,2.991 2.425,5.416 5.416,5.416 2.991,0 5.416,-2.425 5.416,-5.416 0,-0.239 -0.021,-0.473 -0.051,-0.704 l 2.893,-6.704 c 1.761,1.965 2.833,4.561 2.833,7.408 z m 27.068,4.863 -1.083,-2.324 h 2.628 c -0.348,0.882 -0.877,1.672 -1.545,2.324 z M 58.924,60.657 H 57.968 57.15 l 0.317,0.682 -0.004,0.002 1.583,3.398 1.003,2.159 h 2.854 c 0.701,0 1.269,0.568 1.269,1.269 0,0.701 -0.568,1.269 -1.269,1.269 h -5.289 c -0.701,0 -1.269,-0.568 -1.269,-1.269 0,-0.582 0.394,-1.068 0.929,-1.217 l -0.608,-1.309 c -10e-4,0 -0.002,0 -0.002,10e-4 l -1.101,-2.371 c 10e-4,0 0.002,0 0.002,0 l -1.453,-3.126 c -0.118,-0.253 -0.141,-0.525 -0.091,-0.779 0.013,-0.69 0.574,-1.246 1.267,-1.246 h 3.772 c -0.468,-1.765 -2.071,-3.067 -3.983,-3.067 -2.278,0 -4.125,1.847 -4.125,4.125 0,2.084 1.548,3.803 3.555,4.081 l 1.184,2.549 c -0.202,0.02 -0.407,0.034 -0.614,0.034 -3.674,0 -6.664,-2.989 -6.664,-6.664 0,-0.996 0.226,-1.939 0.62,-2.789 L 31.929,43.802 30.487,47.664 c -0.023,0.081 -0.049,0.162 -0.083,0.241 l -0.049,0.115 -0.465,1.246 c -0.073,0.195 -0.175,0.371 -0.299,0.525 l -4.313,9.997 c -0.311,0.72 -1.012,1.15 -1.749,1.15 -0.252,0 -0.508,-0.05 -0.753,-0.156 -0.965,-0.417 -1.41,-1.537 -0.994,-2.502 L 26.823,46.597 30.646,36.36 v -5.423 c -0.001,-0.021 -0.005,-0.516 -0.004,-0.719 0.001,-0.139 -0.008,-0.385 -0.007,-0.407 l 0.011,-0.128 0.01,-0.136 c 0.079,-0.625 0.607,-1.111 1.253,-1.111 h 6.558 c 0.701,0 1.269,0.568 1.269,1.269 0,0.701 -0.568,1.269 -1.269,1.269 h -4.013 v 3.134 H 62.23 l 0.882,-2.358 h 4.065 l -1.242,3.319 13.314,22.721 c 0.018,0.03 0.032,0.061 0.048,0.092 0.01,0.018 0.019,0.036 0.028,0.053 0.006,0.014 0.013,0.027 0.019,0.04 0.122,0.251 0.192,0.532 0.192,0.83 0,0.9 -0.625,1.652 -1.465,1.851 H 58.924 Z m 19.529,9.519 c -5.241,0 -9.631,-3.632 -10.799,-8.515 h 5.741 c 0.919,1.682 2.704,2.824 4.756,2.824 2.991,0 5.416,-2.425 5.416,-5.416 0,-2.991 -2.425,-5.416 -5.416,-5.416 -0.073,0 -0.143,0.008 -0.215,0.011 l -3.005,-5.128 c 1.107,-0.37 2.291,-0.574 3.522,-0.574 6.134,0 11.106,4.972 11.106,11.106 0,6.136 -4.972,11.108 -11.106,11.108 z"
       id="path2"
       inkscape:connector-curvature="0" /><path
       d="m 58.943,53.758 c 1.085,0.777 1.925,1.869 2.39,3.144 H 74.315 L 64.214,39.666 Z m 13.711,2.192 h -4.86 c 0.467,-1.599 1.284,-3.049 2.363,-4.261 z m -4.819,-8.223 c -2.307,2.161 -3.959,5.012 -4.616,8.223 h -1.252 c -0.449,-0.96 -1.091,-1.81 -1.89,-2.507 l 4.327,-11.569 z"
       id="path4"
       inkscape:connector-curvature="0" /><path
       d="m 34.127,37.915 -0.813,2.178 16.16,11.89 2.102,1.593 c 0.337,-0.258 0.553,-0.367 0.553,-0.367 0.891,-0.442 1.89,-0.697 2.95,-0.697 0.088,0 0.174,0.01 0.261,0.013 l 5.465,-14.61 z m 20.552,13.656 c -0.688,0.036 -1.36,0.165 -2.012,0.386 -0.402,-0.562 -1.059,-0.925 -1.804,-0.925 H 49.786 L 34.457,39.753 34.787,38.868 H 59.43 Z"
       id="path6"
       inkscape:connector-curvature="0" /></g></svg>