<?xml version="1.0" encoding="UTF-8" standalone="no"?>
<svg
   xmlns:dc="http://purl.org/dc/elements/1.1/"
   xmlns:cc="http://creativecommons.org/ns#"
   xmlns:rdf="http://www.w3.org/1999/02/22-rdf-syntax-ns#"
   xmlns:svg="http://www.w3.org/2000/svg"
   xmlns="http://www.w3.org/2000/svg"
   xmlns:sodipodi="http://sodipodi.sourceforge.net/DTD/sodipodi-0.dtd"
   xmlns:inkscape="http://www.inkscape.org/namespaces/inkscape"
   version="1.1"
   x="0px"
   y="0px"
   viewBox="0 0 966.94574 999.99994"
   enable-background="new 0 0 100 100"
   xml:space="preserve"
   id="svg40"
   sodipodi:docname="bird-o.svg"
   width="966.94574"
   height="999.99994"
   inkscape:version="0.92.2 (5c3e80d, 2017-08-06)"><metadata
     id="metadata46"><rdf:RDF><cc:Work
         rdf:about=""><dc:format>image/svg+xml</dc:format><dc:type
           rdf:resource="http://purl.org/dc/dcmitype/StillImage" /></cc:Work></rdf:RDF></metadata><defs
     id="defs44" /><sodipodi:namedview
     pagecolor="#ffffff"
     bordercolor="#666666"
     borderopacity="1"
     objecttolerance="10"
     gridtolerance="10"
     guidetolerance="10"
     inkscape:pageopacity="0"
     inkscape:pageshadow="2"
     inkscape:window-width="640"
     inkscape:window-height="480"
     id="namedview42"
     showgrid="false"
     inkscape:zoom="5.3400704"
     inkscape:cx="60.124604"
     inkscape:cy="-9.8799742"
     inkscape:current-layer="svg40" /><g
     id="g34"
     transform="matrix(11.295035,0,0,11.295035,-81.278925,-64.749102)"><g
       id="g4"><path
         d="m 27.2,94.267 c -0.33,0 -0.657,-0.091 -0.943,-0.268 C 25.716,93.666 12.931,85.714 7.38,74.374 7.193,73.994 7.147,73.56 7.249,73.149 8.743,67.106 18.348,60.49 28.5,57.924 22.535,54.21 18.279,49.405 15.816,43.592 13.282,37.612 12.74,30.583 14.249,23.268 c 1.218,-5.897 3.746,-11.847 7.118,-16.755 0.325,-0.474 0.858,-0.763 1.432,-0.78 0.568,-0.013 1.123,0.243 1.476,0.696 6.459,8.327 22.443,26.482 31.748,31.399 0.238,-5.444 2.286,-8.819 4.107,-10.764 2.656,-2.838 6.38,-4.402 10.486,-4.402 3.125,0 6.12,0.933 8.432,2.628 2.307,1.689 3.774,4.043 4.199,6.701 l 8.736,5.666 c 0.515,0.334 0.824,0.908 0.821,1.522 -0.003,0.614 -0.32,1.184 -0.839,1.512 l -10.037,6.344 c -0.736,2.056 -1.314,4.354 -1.922,6.776 -1.258,5.004 -2.558,10.18 -5.511,14.28 -3.481,4.834 -8.591,7.184 -15.621,7.184 v 0 c -1.224,0 -2.527,-0.073 -3.871,-0.218 -2.098,-0.225 -4.375,-0.63 -6.78,-1.208 -5.304,2.433 -14.345,8.032 -19.376,19.349 -0.211,0.475 -0.617,0.835 -1.113,0.989 -0.174,0.053 -0.355,0.08 -0.534,0.08 z M 10.935,73.422 c 4.078,7.8 12.063,13.96 15.534,16.388 5.843,-11.523 15.466,-17.138 20.857,-19.507 0.366,-0.161 0.774,-0.196 1.162,-0.099 2.468,0.617 4.79,1.044 6.899,1.27 1.218,0.131 2.392,0.197 3.488,0.197 12.93,0 15.217,-9.103 17.637,-18.739 0.691,-2.749 1.343,-5.344 2.256,-7.737 0.139,-0.364 0.391,-0.673 0.72,-0.881 l 8.174,-5.166 -7.088,-4.596 c -0.477,-0.31 -0.779,-0.826 -0.818,-1.393 -0.301,-4.526 -4.827,-6.895 -9.14,-6.895 -3.098,0 -5.888,1.158 -7.856,3.261 -2.338,2.499 -3.412,6.269 -3.104,10.901 0.039,0.588 -0.212,1.157 -0.671,1.525 -0.46,0.368 -1.07,0.489 -1.635,0.322 -4.685,-1.376 -11.538,-6.708 -20.374,-15.846 -5.755,-5.953 -11,-12.136 -13.969,-15.804 -2.442,4.075 -4.273,8.74 -5.229,13.371 -1.772,8.594 -1.94,24.33 16.853,33.155 0.732,0.343 1.146,1.133 1.01,1.931 -0.135,0.797 -0.785,1.407 -1.589,1.491 -5.09,0.533 -10.7,2.468 -15.392,5.311 -3.94,2.388 -6.824,5.216 -7.725,7.54 z"
         id="path2"
         inkscape:connector-curvature="0" /></g><g
       id="g8"><path
         d="m 57.857,42.349 c -0.941,0 -1.715,-0.722 -1.795,-1.645 -0.281,-1.585 -4.986,-18.088 -8.312,-29.6 -3.006,2.051 -8.501,6.778 -7.982,13.628 0.076,0.992 -0.667,1.857 -1.66,1.932 -0.988,0.076 -1.857,-0.667 -1.932,-1.66 -0.374,-4.916 1.58,-9.65 5.649,-13.689 2.985,-2.964 6.066,-4.521 6.195,-4.585 0.479,-0.239 1.039,-0.253 1.528,-0.039 0.49,0.213 0.859,0.635 1.008,1.148 0.022,0.079 2.284,7.891 4.517,15.728 4.583,16.089 4.583,16.562 4.583,16.979 0.002,0.996 -0.803,1.803 -1.799,1.803 z"
         id="path6"
         inkscape:connector-curvature="0" /></g><g
       id="g12"><path
         d="m 70.337,31.17 c 0.22,0 0.429,0.026 0.633,0.072 -0.378,0.271 -0.624,0.715 -0.624,1.221 0,0.822 0.655,1.492 1.467,1.492 0.557,0 1.042,-0.322 1.287,-0.788 0.108,0.307 0.169,0.64 0.169,0.986 0,1.651 -1.314,2.985 -2.934,2.985 -1.616,0 -2.928,-1.334 -2.928,-2.985 0.002,-1.644 1.314,-2.983 2.93,-2.983 z"
         id="path10"
         inkscape:connector-curvature="0"
         style="clip-rule:evenodd;fill-rule:evenodd" /></g><g
       id="g16"><path
         d="m 80.452,47.64 c -0.65,0 -1.277,-0.353 -1.599,-0.969 -3.448,-6.614 -3.02,-10.443 1.697,-15.173 0.703,-0.704 1.843,-0.705 2.547,-0.003 0.704,0.702 0.706,1.843 0.004,2.547 -3.335,3.344 -3.955,5.397 -1.053,10.963 0.459,0.882 0.117,1.97 -0.765,2.43 -0.265,0.138 -0.551,0.205 -0.831,0.205 z"
         id="path14"
         inkscape:connector-curvature="0" /></g><g
       id="g20"><path
         d="m 35.79,37.336 c -0.249,0 -0.501,-0.052 -0.743,-0.161 -0.557,-0.252 -13.713,-6.321 -19.346,-17.582 -0.445,-0.89 -0.085,-1.972 0.805,-2.417 0.89,-0.444 1.972,-0.083 2.417,0.805 5.068,10.131 17.487,15.856 17.612,15.913 0.907,0.412 1.308,1.479 0.896,2.385 -0.301,0.664 -0.956,1.057 -1.641,1.057 z"
         id="path18"
         inkscape:connector-curvature="0" /></g><g
       id="g24"><path
         d="m 36.344,49.28 c -0.178,0 -0.358,-0.027 -0.537,-0.083 -0.578,-0.18 -14.224,-4.475 -21.078,-10.047 -0.772,-0.627 -0.889,-1.761 -0.261,-2.534 0.627,-0.772 1.762,-0.889 2.533,-0.261 6.315,5.133 19.743,9.361 19.878,9.403 0.95,0.296 1.479,1.307 1.183,2.256 -0.24,0.771 -0.951,1.266 -1.718,1.266 z"
         id="path22"
         inkscape:connector-curvature="0" /></g><g
       id="g28"><path
         d="m 16.895,85.967 c -0.167,0 -0.335,-0.022 -0.502,-0.071 -0.956,-0.277 -1.506,-1.275 -1.23,-2.23 2.51,-8.675 14.849,-16.133 19.336,-17.639 0.942,-0.316 1.964,0.192 2.281,1.135 0.317,0.943 -0.192,1.965 -1.135,2.281 -4.179,1.403 -15.011,8.274 -17.02,15.224 -0.23,0.788 -0.949,1.3 -1.73,1.3 z"
         id="path26"
         inkscape:connector-curvature="0" /></g><g
       id="g32"><path
         d="m 53.712,74.883 c -0.779,0 -1.499,-0.511 -1.729,-1.297 -0.279,-0.956 0.27,-1.956 1.225,-2.235 9.603,-2.804 10.774,-8.112 12.014,-13.731 1.3,-5.888 2.772,-12.56 15.079,-13.579 0.992,-0.082 1.863,0.656 1.944,1.646 0.083,0.992 -0.655,1.863 -1.647,1.944 -9.659,0.799 -10.581,4.979 -11.858,10.764 -1.28,5.797 -2.872,13.012 -14.523,16.414 -0.168,0.05 -0.338,0.074 -0.505,0.074 z"
         id="path30"
         inkscape:connector-curvature="0" /></g></g></svg>