<?xml version="1.0" encoding="UTF-8" standalone="no"?>
<svg
   xmlns:dc="http://purl.org/dc/elements/1.1/"
   xmlns:cc="http://creativecommons.org/ns#"
   xmlns:rdf="http://www.w3.org/1999/02/22-rdf-syntax-ns#"
   xmlns:svg="http://www.w3.org/2000/svg"
   xmlns="http://www.w3.org/2000/svg"
   xmlns:sodipodi="http://sodipodi.sourceforge.net/DTD/sodipodi-0.dtd"
   xmlns:inkscape="http://www.inkscape.org/namespaces/inkscape"
   version="1.1"
   x="0px"
   y="0px"
   viewBox="0 0 868.72858 1000"
   enable-background="new 0 0 100 100"
   xml:space="preserve"
   id="svg30"
   sodipodi:docname="boot.svg"
   width="868.72858"
   height="1000"
   inkscape:version="0.92.2 (5c3e80d, 2017-08-06)"><metadata
     id="metadata36"><rdf:RDF><cc:Work
         rdf:about=""><dc:format>image/svg+xml</dc:format><dc:type
           rdf:resource="http://purl.org/dc/dcmitype/StillImage" /><dc:title></dc:title></cc:Work></rdf:RDF></metadata><defs
     id="defs34" /><sodipodi:namedview
     pagecolor="#ffffff"
     bordercolor="#666666"
     borderopacity="1"
     objecttolerance="10"
     gridtolerance="10"
     guidetolerance="10"
     inkscape:pageopacity="0"
     inkscape:pageshadow="2"
     inkscape:window-width="640"
     inkscape:window-height="480"
     id="namedview32"
     showgrid="false"
     fit-margin-top="0"
     fit-margin-left="0"
     fit-margin-right="0"
     fit-margin-bottom="0"
     inkscape:zoom="0.236"
     inkscape:cx="1551.75"
     inkscape:cy="-662.9458"
     inkscape:current-layer="svg30" /><path
     d="M 868.58097,15.14529 C 867.34107,5.6200599 858.71969,-1.1472601 849.09016,0.16216991 780.02641,9.1659499 765.54156,84.97385 762.58666,106.16807 H 330.25452 l 61.0797,509.26406 c 0,0 -20.52213,78.40359 -124.81303,121.85813 C 136.28503,791.55629 0,746.25928 0,953.25354 c 0.59098177,7.68276 2.9317331,20.20926 6.7557328,26.89546 3.6617692,6.39651 12.7930172,12.6192 18.5058412,15.1106 15.423465,6.721 34.045185,6.2806 49.097838,-1.22832 5.202958,-2.59568 9.9424,-6.00252 14.276266,-9.86128 5.13343,-4.56563 6.686205,-9.4673 12.561262,-3.84718 21.04358,20.12818 51.77464,26.89548 77.09415,9.58318 5.05231,-3.45319 9.31665,-7.70594 13.80116,-11.81964 3.2562,-2.98967 8.78361,4.91326 11.81964,7.47418 10.8926,9.21236 24.17231,14.38056 38.50652,14.38056 13.49987,0 26.23495,-4.55404 36.77992,-12.93207 3.48795,-2.76951 6.60509,-5.92141 9.88446,-8.92267 3.25619,-2.98967 7.39307,3.56907 10.20892,6.07205 19.47922,17.30069 48.26351,21.22899 70.81352,7.17289 4.48451,-2.79267 8.51709,-6.18792 12.34109,-9.80334 5.51583,-5.21455 5.49266,-5.22613 11.00849,0 7.39306,6.99908 15.72475,12.82778 25.55127,15.8638 14.11403,4.35704 30.1053,3.23304 43.35025,-3.37207 8.8879,-4.42657 14.41532,-12.68872 22.66589,-17.47452 9.18918,5.41154 15.01789,14.22992 25.29633,18.70284 12.65397,5.51579 27.54439,6.19949 40.71981,2.13217 10.46385,-3.22143 18.99253,-9.59477 26.80276,-17.05736 5.43471,-5.22613 6.25745,-2.0047 11.12436,2.49139 3.40684,3.14032 7.03384,6.06046 10.97372,8.51709 22.55001,14.0561 51.34589,10.1278 70.82511,-7.1613 5.15661,-4.57722 6.7905,-9.47889 12.7119,-3.824 3.00126,2.8622 6.06046,5.65488 9.39777,8.13469 10.15098,7.50894 22.26032,11.472 34.90269,11.472 15.15694,0 27.57915,-4.79739 37.74172,-15.8754 6.23428,-6.79049 7.31195,-8.09992 9.78017,-15.93333 2.75791,-8.74885 2.81585,-17.64834 2.31757,-26.60577 3.45319,-37.22026 10.66085,-154.97628 -27.30104,-227.42369 l 37.64902,-607.79578 c 2.88538,-12.1441 18.29726,-65.51786 65.63374,-71.6942 9.51365,-1.23991 16.22303,-9.96558 14.98312,-19.47923 z"
     id="path24"
     inkscape:connector-curvature="0"
     style="stroke-width:11.58787823" /></svg>