<?xml version="1.0" encoding="UTF-8" standalone="no"?>
<svg
   xmlns:dc="http://purl.org/dc/elements/1.1/"
   xmlns:cc="http://creativecommons.org/ns#"
   xmlns:rdf="http://www.w3.org/1999/02/22-rdf-syntax-ns#"
   xmlns:svg="http://www.w3.org/2000/svg"
   xmlns="http://www.w3.org/2000/svg"
   xmlns:sodipodi="http://sodipodi.sourceforge.net/DTD/sodipodi-0.dtd"
   xmlns:inkscape="http://www.inkscape.org/namespaces/inkscape"
   version="1.1"
   x="0px"
   y="0px"
   viewBox="0 0 863.93555 1000"
   xml:space="preserve"
   id="svg10"
   sodipodi:docname="boot-o.svg"
   width="863.93555"
   height="1000"
   inkscape:version="0.92.2 (5c3e80d, 2017-08-06)"><metadata
     id="metadata16"><rdf:RDF><cc:Work
         rdf:about=""><dc:format>image/svg+xml</dc:format><dc:type
           rdf:resource="http://purl.org/dc/dcmitype/StillImage" /></cc:Work></rdf:RDF></metadata><defs
     id="defs14" /><sodipodi:namedview
     pagecolor="#ffffff"
     bordercolor="#666666"
     borderopacity="1"
     objecttolerance="10"
     gridtolerance="10"
     guidetolerance="10"
     inkscape:pageopacity="0"
     inkscape:pageshadow="2"
     inkscape:window-width="640"
     inkscape:window-height="480"
     id="namedview12"
     showgrid="false"
     inkscape:zoom="0.236"
     inkscape:cx="1386.8436"
     inkscape:cy="-398.4458"
     inkscape:current-layer="svg10" /><style
     type="text/css"
     id="style2">
	.st0{fill:#1D1D1B;}
</style><path
     class="st0"
     d="m 863.70514,937.00669 c -0.73651,-1.74883 0.31801,-50.57977 -6.45028,-83.76211 -0.23039,-2.99151 -11.83305,-59.8755 -120.76986,-52.08842 0,0 -52.37403,7.64428 -108.84599,-6.66429 C 554.50612,774.846 509.95149,727.72173 496.23009,651.13988 495.49357,649.39104 450.65005,450.02128 513.34476,29.315802 l 0.50613,-1.24265 c 0.0912,-14.45137 -8.79284,-28.21162984 -26.23572,-28.07209984 L 22.089097,11.776012 c -1.242643,-0.50613 -8.97451,0.69116 -15.2333061,5.38602 C 4.0946571,20.383902 0.32121403,26.091122 0,37.550992 1.151803,52.508512 30.359845,400.53528 61.297028,513.10602 c 0.736515,1.74882 36.284331,213.26957 26.209946,270.01731 l -0.506128,1.24265 c -0.27574,4.23417 -6.985489,120.30585 8.805939,184.69131 l 1.703418,6.48917 6.213377,2.53077 v 0 c 3.72802,1.51845 65.12526,25.07727 220.1319,21.56654 l 11.96602,-0.92141 2.48208,-38.10761 c 89.60886,14.76602 461.25302,73.41475 522.8708,-17.39463 l 2.76114,-3.22187 z M 487.20315,25.912252 c -0.50612,1.24264 -0.50612,1.24264 0,0 -2.89738,24.89892 -7.03745,49.29169 -10.16521,71.19911 L 33.925443,110.7714 C 31.161022,74.873352 28.581568,49.192492 27.153944,38.469152 Z M 86.747541,507.53503 C 65.800465,430.90775 45.580082,238.66956 34.340758,123.98009 l 438.832902,-6.71014 c -44.88849,362.76048 -7.08898,533.1821 -5.38557,539.67127 38.07858,205.30736 269.52754,170.63233 269.52754,170.63233 82.01328,-5.71378 90.76071,29.72354 91.49722,31.47236 1.70342,6.48917 2.90067,14.221 4.09793,21.95284 C 772.25661,937.42856 539.97374,906.5663 536.98225,906.79666 420.44984,894.10394 317.35649,883.98743 317.35649,883.98743 179.14703,871.15846 128.65809,856.38917 111.26063,849.30302 c -0.0483,-31.89424 1.60603,-57.29932 1.88181,-61.5335 C 124.50492,724.30225 88.681319,517.01569 86.747541,507.53503 Z m 241.014369,425.60456 -14.68175,-3.08235 -2.02133,44.09063 C 196.18442,975.17005 139.2063,962.10412 121.3027,956.26064 c -5.06482,-26.69317 -7.09269,-60.84239 -7.1414,-92.73662 24.11699,8.37424 79.34626,22.17665 203.6105,33.67209 0,0 103.09335,10.11654 218.38308,22.30309 9.71104,1.05774 224.32067,29.06803 300.39308,-22.53061 1.15181,14.95751 1.56716,28.16619 1.52174,35.39188 -55.72888,65.68012 -386.36476,23.73443 -510.30779,0.77905 z"
     id="path4"
     inkscape:connector-curvature="0"
     style="fill:#1d1d1b;stroke-width:13.41802216"
     sodipodi:nodetypes="cccccccccccccccccccccccccccccccccccccccccccccccccccc" /></svg>