<?xml version="1.0" encoding="UTF-8" standalone="no"?>
<svg
   xmlns:dc="http://purl.org/dc/elements/1.1/"
   xmlns:cc="http://creativecommons.org/ns#"
   xmlns:rdf="http://www.w3.org/1999/02/22-rdf-syntax-ns#"
   xmlns:svg="http://www.w3.org/2000/svg"
   xmlns="http://www.w3.org/2000/svg"
   xmlns:sodipodi="http://sodipodi.sourceforge.net/DTD/sodipodi-0.dtd"
   xmlns:inkscape="http://www.inkscape.org/namespaces/inkscape"
   version="1.1"
   x="0px"
   y="0px"
   viewBox="0 0 999.99994 553.73206"
   enable-background="new 0 0 100 100"
   xml:space="preserve"
   id="svg68"
   sodipodi:docname="car-o.svg"
   width="999.99994"
   height="553.73206"
   inkscape:version="0.92.2 (5c3e80d, 2017-08-06)"><metadata
     id="metadata74"><rdf:RDF><cc:Work
         rdf:about=""><dc:format>image/svg+xml</dc:format><dc:type
           rdf:resource="http://purl.org/dc/dcmitype/StillImage" /></cc:Work></rdf:RDF></metadata><defs
     id="defs72" /><sodipodi:namedview
     pagecolor="#ffffff"
     bordercolor="#666666"
     borderopacity="1"
     objecttolerance="10"
     gridtolerance="10"
     guidetolerance="10"
     inkscape:pageopacity="0"
     inkscape:pageshadow="2"
     inkscape:window-width="640"
     inkscape:window-height="480"
     id="namedview70"
     showgrid="false"
     inkscape:zoom="1.888"
     inkscape:cx="46.583001"
     inkscape:cy="13.294971"
     inkscape:current-layer="svg68" /><g
     id="g4"
     transform="matrix(10.733529,0,0,10.733529,-36.676469,-259.8158)"><path
       d="m 24.402,69.756 c -2.399,0 -4.354,-1.951 -4.354,-4.35 0,-2.402 1.955,-4.357 4.354,-4.357 2.399,0 4.354,1.955 4.354,4.357 0,2.399 -1.954,4.35 -4.354,4.35 z m 0,-5.666 c -0.725,0 -1.313,0.592 -1.313,1.316 0,0.721 0.588,1.309 1.313,1.309 0.725,0 1.313,-0.588 1.313,-1.309 0,-0.724 -0.588,-1.316 -1.313,-1.316 z"
       id="path2"
       inkscape:connector-curvature="0" /></g><g
     id="g8"
     transform="matrix(10.733529,0,0,10.733529,-36.676469,-259.8158)"><path
       d="m 24.405,75.795 c -5.732,0 -10.395,-4.664 -10.395,-10.393 0,-5.729 4.663,-10.391 10.395,-10.391 5.729,0 10.389,4.662 10.389,10.391 0,5.729 -4.66,10.393 -10.389,10.393 z m 0,-17.742 c -4.054,0 -7.354,3.297 -7.354,7.35 0,4.055 3.3,7.352 7.354,7.352 4.051,0 7.347,-3.297 7.347,-7.352 0,-4.053 -3.296,-7.35 -7.347,-7.35 z"
       id="path6"
       inkscape:connector-curvature="0" /></g><g
     id="g12"
     transform="matrix(10.733529,0,0,10.733529,-36.676469,-259.8158)"><path
       d="m 70.899,69.756 c -2.399,0 -4.35,-1.951 -4.35,-4.35 0,-2.402 1.95,-4.357 4.35,-4.357 2.405,0 4.359,1.955 4.359,4.357 0.001,2.399 -1.953,4.35 -4.359,4.35 z m 0,-5.666 c -0.719,0 -1.307,0.592 -1.307,1.316 0,0.721 0.588,1.309 1.307,1.309 0.725,0 1.318,-0.588 1.318,-1.309 0.001,-0.724 -0.593,-1.316 -1.318,-1.316 z"
       id="path10"
       inkscape:connector-curvature="0" /></g><g
     id="g16"
     transform="matrix(10.733529,0,0,10.733529,-36.676469,-259.8158)"><path
       d="M 95.044,60.842 H 92.003 V 50.539 C 92.009,50.42 92.015,48.415 90.334,46.714 88.7,45.06 86.021,44.219 82.369,44.219 H 69.973 L 61.828,31.092 C 61.733,30.946 59.286,27.246 53.706,27.246 H 29.751 c -0.356,0.006 -9.073,0.359 -12.052,16.313 L 17.468,44.8 H 12.354 C 11.867,44.809 7.46,45.082 7.46,51.678 V 60.84 H 4.418 v -9.16 c 0,-9.807 7.855,-9.919 7.935,-9.919 h 2.605 C 18.679,24.408 29.29,24.206 29.75,24.206 h 23.955 c 7.317,0 10.569,5.063 10.703,5.28 l 7.257,11.692 h 10.703 c 4.538,0 7.965,1.164 10.192,3.463 2.56,2.643 2.488,5.812 2.482,5.945 v 10.256 z"
       id="path14"
       inkscape:connector-curvature="0" /></g><g
     id="g20"
     transform="matrix(10.733529,0,0,10.733529,-36.676469,-259.8158)"><path
       d="m 95.044,57.338 h -5.043 c -2.607,0 -4.728,-2.125 -4.728,-4.732 0,-2.607 2.12,-4.728 4.728,-4.728 h 4.651 l 0.237,1.229 c 0.16,0.802 0.16,1.357 0.154,1.461 v 6.77 z m -5.043,-6.419 c -0.926,0 -1.687,0.757 -1.687,1.687 0,0.934 0.761,1.689 1.687,1.689 h 2.002 v -3.376 z"
       id="path18"
       inkscape:connector-curvature="0" /></g><g
     id="g24"
     transform="matrix(10.733529,0,0,10.733529,-36.676469,-259.8158)"><path
       d="M 9.461,57.338 H 4.418 V 50.539 C 4.415,50.474 4.409,49.912 4.569,49.107 L 4.807,47.878 H 9.46 c 2.608,0 4.728,2.121 4.728,4.728 10e-4,2.607 -2.119,4.732 -4.727,4.732 z M 7.459,54.295 H 9.46 c 0.93,0 1.687,-0.756 1.687,-1.689 0,-0.93 -0.757,-1.687 -1.687,-1.687 H 7.459 Z"
       id="path22"
       inkscape:connector-curvature="0" /></g><g
     id="g28"
     transform="matrix(10.733529,0,0,10.733529,-36.676469,-259.8158)"><polygon
       points="70.834,44.219 16.22,44.801 16.191,41.76 70.805,41.178 "
       id="polygon26" /></g><g
     id="g32"
     transform="matrix(10.733529,0,0,10.733529,-36.676469,-259.8158)"><rect
       x="43.104"
       y="25.726"
       width="3.0409999"
       height="17.254999"
       id="rect30" /></g><g
     id="g36"
     transform="matrix(10.733529,0,0,10.733529,-36.676469,-259.8158)"><path
       d="M 15.543,67.033 H 7.358 c -2.174,0 -3.941,-1.77 -3.941,-3.947 0,-2.174 1.767,-3.939 3.941,-3.939 h 12.34 l -1.488,2.336 c -0.757,1.191 -1.159,2.545 -1.159,3.92 v 1.521 z M 7.358,62.188 c -0.496,0 -0.9,0.402 -0.9,0.898 0,0.5 0.404,0.906 0.9,0.906 h 6.78 c 0.083,-0.629 0.22,-1.229 0.404,-1.805 H 7.358 Z"
       id="path34"
       inkscape:connector-curvature="0" /></g><g
     id="g40"
     transform="matrix(10.733529,0,0,10.733529,-36.676469,-259.8158)"><path
       d="m 70.905,75.795 c -5.73,0 -10.393,-4.664 -10.393,-10.393 0,-5.729 4.662,-10.391 10.393,-10.391 5.726,0 10.389,4.662 10.389,10.391 0,5.729 -4.663,10.393 -10.389,10.393 z m 0,-17.742 c -4.056,0 -7.352,3.297 -7.352,7.35 0,4.055 3.296,7.352 7.352,7.352 4.051,0 7.348,-3.297 7.348,-7.352 0,-4.053 -3.297,-7.35 -7.348,-7.35 z"
       id="path38"
       inkscape:connector-curvature="0" /></g><g
     id="g50"
     transform="matrix(10.733529,0,0,10.733529,-36.676469,-259.8158)"><g
       id="g44"><path
         d="m 63.679,67.039 -32.06,-0.006 0.125,-1.637 C 31.753,64.031 31.352,62.673 30.598,61.48 L 29.116,59.146 H 66.2 l -1.487,2.336 c -0.758,1.191 -1.158,2.545 -1.158,3.92 z M 34.696,63.992 h 25.941 c 0.084,-0.629 0.221,-1.229 0.407,-1.805 h -26.77 c 0.193,0.588 0.335,1.194 0.422,1.805 z"
         id="path42"
         inkscape:connector-curvature="0" /></g><g
       id="g48"><path
         d="M 92.645,67.033 H 78.241 v -1.52 l 1.521,-0.061 -1.491,-0.246 c -0.018,-1.18 -0.416,-2.533 -1.176,-3.725 L 75.61,59.145 h 17.035 c 2.174,0 3.938,1.766 3.938,3.939 -0.001,2.18 -1.765,3.949 -3.938,3.949 z M 81.199,63.992 h 11.445 c 0.493,0 0.896,-0.406 0.896,-0.906 0,-0.496 -0.403,-0.898 -0.896,-0.898 H 80.771 c 0.196,0.587 0.338,1.193 0.428,1.804 z"
         id="path46"
         inkscape:connector-curvature="0" /></g></g><g
     id="g54"
     transform="matrix(10.733529,0,0,10.733529,-36.676469,-259.8158)"><rect
       x="33.272999"
       y="46.292"
       width="6.5209999"
       height="3.0409999"
       id="rect52" /></g><g
     id="g58"
     transform="matrix(10.733529,0,0,10.733529,-36.676469,-259.8158)"><rect
       x="49.119999"
       y="46.292"
       width="6.5209999"
       height="3.0409999"
       id="rect56" /></g><g
     id="g62"
     transform="matrix(10.733529,0,0,10.733529,-36.676469,-259.8158)"><rect
       x="22.885"
       y="27.784"
       width="3.0409999"
       height="15.411"
       id="rect60" /></g></svg>