<?xml version="1.0" encoding="UTF-8" standalone="no"?>
<svg
   xmlns:dc="http://purl.org/dc/elements/1.1/"
   xmlns:cc="http://creativecommons.org/ns#"
   xmlns:rdf="http://www.w3.org/1999/02/22-rdf-syntax-ns#"
   xmlns:svg="http://www.w3.org/2000/svg"
   xmlns="http://www.w3.org/2000/svg"
   xmlns:sodipodi="http://sodipodi.sourceforge.net/DTD/sodipodi-0.dtd"
   xmlns:inkscape="http://www.inkscape.org/namespaces/inkscape"
   viewBox="0 0 1000 544.44446"
   version="1.1"
   x="0px"
   y="0px"
   id="svg16"
   sodipodi:docname="car.svg"
   width="1000"
   height="544.44446"
   inkscape:version="0.92.2 (5c3e80d, 2017-08-06)">
  <metadata
     id="metadata22">
    <rdf:RDF>
      <cc:Work
         rdf:about="">
        <dc:format>image/svg+xml</dc:format>
        <dc:type
           rdf:resource="http://purl.org/dc/dcmitype/StillImage" />
        <dc:title>car</dc:title>
      </cc:Work>
    </rdf:RDF>
  </metadata>
  <defs
     id="defs20" />
  <sodipodi:namedview
     pagecolor="#ffffff"
     bordercolor="#666666"
     borderopacity="1"
     objecttolerance="10"
     gridtolerance="10"
     guidetolerance="10"
     inkscape:pageopacity="0"
     inkscape:pageshadow="2"
     inkscape:window-width="640"
     inkscape:window-height="480"
     id="namedview18"
     showgrid="false"
     fit-margin-top="0"
     fit-margin-left="0"
     fit-margin-right="0"
     fit-margin-bottom="0"
     inkscape:zoom="1.3611806"
     inkscape:cx="141.71858"
     inkscape:cy="-116.63683"
     inkscape:current-layer="svg16" />
  <title
     id="title2">car</title>
  <desc
     id="desc4">Created with Sketch.</desc>
  <g
     id="g10"
     style="fill:none;fill-rule:evenodd;stroke:none;stroke-width:1"
     transform="scale(11.111111)">
    <g
       transform="translate(0,-21)"
       id="g8"
       style="fill:#000000">
      <path
         d="M 58.166053,63 H 33.833956 C 33.943156,62.349547 34,61.681384 34,61 34,54.368302 28.626426,49 22.005659,49 15.373573,49 10,54.368302 10,61 c 0,0.681384 0.05684,1.349547 0.166056,2 H 2 C 0.99641509,63 0,62.12104 0,61 V 55 C 0,53.87896 0.99641509,53 2,53 2,43.451238 6.7560377,40.062472 22,38.004056 29.668679,27.72064 37.465472,21.013861 44.575472,21.013861 L 62.898113,21 C 69.987736,21 75.209811,29.297772 79,36.997772 c 9.757001,0 9,5.890594 9,16.002228 1.003585,0 2,0.87896 2,2 v 6 c 0,1.12104 -0.996415,2 -2,2 H 81.833954 C 81.943156,62.349547 82,61.681384 82,61 82,54.368302 76.626426,49 70.003395,49 63.373573,49 58,54.368302 58,61 c 0,0.681384 0.05684,1.349547 0.166053,2 z M 31,61 c 0,4.968679 -4.03018,9 -8.995756,9 C 17.03018,70 13,65.968679 13,61 13,56.026226 17.03018,52 22.004244,52 26.96982,52 31,56.026226 31,61 Z m 48,0 c 0,4.968679 -4.03018,9 -8.997454,9 C 65.03018,70 61,65.968679 61,61 61,56.026226 65.03018,52 70.002546,52 74.96982,52 79,56.026226 79,61 Z M 59,37 58,25.002619 H 44 C 39.493207,25.002619 32.888868,30.778154 28,38 Z M 63,37.0017 72,36.5 C 70.965849,31.14137 65.696792,25 62,25 Z M 22.000931,58 C 20.340366,58 19,59.338504 19,60.999069 19,62.652187 20.340366,64 22.000931,64 23.654049,64 25,62.652187 25,60.999069 25,59.338504 23.654049,58 22.000931,58 Z M 70,58 c -1.66005,0 -3,1.338504 -3,2.999069 C 67,62.652187 68.33995,64 70,64 71.652606,64 73,62.652187 73,60.999069 73,59.338504 71.652606,58 70,58 Z"
         id="path6"
         inkscape:connector-curvature="0" />
    </g>
  </g>
</svg>
