<?xml version="1.0" encoding="UTF-8" standalone="no"?>
<svg
   xmlns:dc="http://purl.org/dc/elements/1.1/"
   xmlns:cc="http://creativecommons.org/ns#"
   xmlns:rdf="http://www.w3.org/1999/02/22-rdf-syntax-ns#"
   xmlns:svg="http://www.w3.org/2000/svg"
   xmlns="http://www.w3.org/2000/svg"
   xmlns:sodipodi="http://sodipodi.sourceforge.net/DTD/sodipodi-0.dtd"
   xmlns:inkscape="http://www.inkscape.org/namespaces/inkscape"
   version="1.1"
   x="0px"
   y="0px"
   viewBox="0 0 415.48889 1000"
   enable-background="new 0 0 100 100"
   xml:space="preserve"
   id="svg12"
   sodipodi:docname="guitar-o.svg"
   width="415.48889"
   height="1000"
   inkscape:version="0.92.2 (5c3e80d, 2017-08-06)"><metadata
     id="metadata18"><rdf:RDF><cc:Work
         rdf:about=""><dc:format>image/svg+xml</dc:format><dc:type
           rdf:resource="http://purl.org/dc/dcmitype/StillImage" /></cc:Work></rdf:RDF></metadata><defs
     id="defs16" /><sodipodi:namedview
     pagecolor="#ffffff"
     bordercolor="#666666"
     borderopacity="1"
     objecttolerance="10"
     gridtolerance="10"
     guidetolerance="10"
     inkscape:pageopacity="0"
     inkscape:pageshadow="2"
     inkscape:window-width="640"
     inkscape:window-height="480"
     id="namedview14"
     showgrid="false"
     inkscape:snap-global="false"
     inkscape:object-nodes="false"
     inkscape:zoom="0.944"
     inkscape:cx="206.2306"
     inkscape:cy="592.19345"
     inkscape:current-layer="svg12" /><g
     id="g6"
     transform="matrix(11.281334,0,0,11.281334,-356.27846,-63.08522)"><path
       d="m 46.278,93.959 c 1.182,0.175 2.442,0.275 3.79,0.275 12.343,0 18.343,-3.904 18.343,-11.935 0,-5.251 -1.957,-8.719 -3.53,-11.505 -1.147,-2.033 -2.139,-3.789 -2.139,-5.731 0,-2.324 0.268,-3.476 0.504,-4.492 0.261,-1.119 0.485,-2.085 0.297,-4.123 -0.5,-5.407 -7.93,-6.24 -9.545,-6.357 L 53.498,19.722 54.179,15.747 50.348,5.592 47.254,6.978 V 8.681 C 47.07,8.389 46.759,8.184 46.389,8.184 c -0.573,0 -1.04,0.466 -1.04,1.04 v 0.787 c 0,0.573 0.466,1.04 1.04,1.04 0.37,0 0.681,-0.205 0.865,-0.497 v 1.249 c -0.184,-0.292 -0.495,-0.497 -0.865,-0.497 -0.573,0 -1.04,0.466 -1.04,1.04 v 0.787 c 0,0.573 0.466,1.04 1.04,1.04 0.37,0 0.681,-0.205 0.865,-0.497 v 1.133 c -0.184,-0.292 -0.495,-0.497 -0.865,-0.497 -0.573,0 -1.04,0.466 -1.04,1.04 v 0.788 c 0,0.573 0.466,1.04 1.04,1.04 0.37,0 0.681,-0.205 0.865,-0.497 v 0.526 l 1.771,2.656 -0.497,30.222 c -0.189,0 -0.429,0.004 -0.701,0.013 -2.236,0.043 -9.23,0.452 -10.623,3.856 -0.799,1.951 -0.613,3.338 -0.331,5.438 0.216,1.607 0.484,3.607 0.484,6.717 0,1.391 -0.918,3.032 -1.981,4.933 -1.777,3.177 -3.99,7.132 -3.781,12.677 0.212,5.666 6.016,9.621 14.683,10.238 z m 0.15,-83.948 c 0,0.021 -0.019,0.04 -0.04,0.04 l -0.04,-0.04 0.079,-0.787 v 0.787 z m 0,3.121 c 0,0.021 -0.019,0.04 -0.04,0.04 l -0.04,-0.04 0.079,-0.787 v 0.787 z m 0,3.004 c 0,0.021 -0.019,0.04 -0.04,0.04 l -0.04,-0.04 0.079,-0.788 v 0.788 z m 3.269,44.233 c 0.102,-0.047 0.206,-0.085 0.311,-0.122 0.099,-0.035 0.199,-0.068 0.301,-0.094 0.107,-0.027 0.214,-0.049 0.323,-0.065 0.085,-0.013 0.173,-0.019 0.26,-0.026 0.186,-0.015 0.372,-0.015 0.558,0 0.09,0.007 0.18,0.013 0.267,0.027 0.106,0.016 0.212,0.038 0.316,0.064 0.108,0.027 0.212,0.061 0.316,0.098 0.095,0.033 0.189,0.067 0.281,0.109 1.21,0.556 2.056,1.771 2.056,3.187 0,1.938 -1.577,3.514 -3.514,3.514 -1.937,0 -3.514,-1.576 -3.514,-3.514 10e-4,-1.409 0.839,-2.619 2.039,-3.178 z m 3.325,-0.93 C 52.957,59.41 52.893,59.383 52.827,59.357 52.6,59.267 52.368,59.192 52.13,59.14 c -0.046,-0.01 -0.092,-0.016 -0.139,-0.024 -0.269,-0.05 -0.542,-0.083 -0.818,-0.083 -0.637,0 -1.242,0.136 -1.792,0.375 -0.002,10e-4 -0.005,10e-4 -0.007,0.002 l 0.645,-39.197 h 2.496 l 0.639,39.282 C 53.11,59.474 53.065,59.459 53.022,59.439 Z M 48.253,16.902 V 7.626 l 1.534,-0.687 3.361,8.908 -0.569,3.366 h -2.785 z m 0.11,43.14 c -1.031,0.828 -1.704,2.083 -1.704,3.504 0,2.489 2.025,4.514 4.514,4.514 2.489,0 4.514,-2.025 4.514,-4.514 0,-1.337 -0.595,-2.526 -1.522,-3.354 l -0.15,-9.095 c 1.628,0.141 8.121,0.985 8.532,5.444 0.173,1.876 -0.024,2.727 -0.275,3.804 -0.249,1.068 -0.53,2.279 -0.53,4.718 0,2.205 1.051,4.066 2.268,6.223 1.594,2.824 3.401,6.025 3.401,11.014 0,4.694 -1.798,10.935 -17.343,10.935 -0.474,0 -0.932,-0.021 -1.386,-0.046 v -0.135 c -0.722,0 -1.42,-0.03 -2.106,-0.073 -7.106,-1.046 -11.25,-5.222 -11.25,-9.284 0,-5.215 2.044,-9.011 3.688,-12.062 1.113,-2.067 2.075,-3.853 2.075,-5.53 0,-3.456 -0.393,-5.674 -0.679,-7.294 -0.332,-1.874 -0.531,-3.004 0.03,-4.629 0.918,-2.659 5.666,-3.048 7.663,-3.093 0.139,-10e-4 0.277,-10e-4 0.398,0.001 v -0.006 c 0.003,0 0.007,0 0.011,0 z M 36.248,71.526 c 1.131,-2.022 2.108,-3.769 2.108,-5.42 0,-3.177 -0.285,-5.3 -0.493,-6.85 -0.279,-2.078 -0.432,-3.223 0.266,-4.926 0.346,-0.846 1.217,-1.479 2.325,-1.952 -0.42,0.416 -0.761,0.899 -0.961,1.478 -0.646,1.87 -0.404,3.237 -0.069,5.129 0.296,1.672 0.664,3.752 0.664,7.12 0,1.425 -0.906,3.107 -1.955,5.056 -1.696,3.149 -3.807,7.069 -3.807,12.536 0,2.789 1.656,5.667 4.813,7.711 -3.983,-1.618 -6.417,-4.333 -6.545,-7.73 -0.199,-5.265 1.937,-9.084 3.654,-12.152 z"
       id="path2"
       inkscape:connector-curvature="0" /><path
       d="m 44.692,74.281 v 2.241 c 0,0.276 0.224,0.5 0.5,0.5 h 3.194 v 0.362 c 0,0.276 0.224,0.5 0.5,0.5 h 5.664 c 0.276,0 0.5,-0.224 0.5,-0.5 v -0.362 h 3.194 c 0.276,0 0.5,-0.224 0.5,-0.5 v -2.241 c 0,-0.109 -0.042,-0.204 -0.101,-0.286 1.092,-0.439 3.425,-1.908 2.955,-6.4 -0.531,-5.071 -5.713,-8.602 -5.934,-8.749 -0.181,-0.122 -0.419,-0.112 -0.59,0.024 -0.17,0.136 -0.233,0.367 -0.155,0.57 0.013,0.032 1.228,3.22 0.989,5.493 -0.125,1.192 -0.605,1.801 -1.113,2.446 -0.635,0.807 -1.355,1.721 -1.312,3.7 0.021,0.959 0.367,1.722 1.028,2.267 0.218,0.179 0.456,0.321 0.702,0.435 H 45.192 c -0.276,0 -0.5,0.223 -0.5,0.5 z m 9.791,-3.224 c -0.036,-1.62 0.489,-2.287 1.097,-3.059 0.546,-0.694 1.166,-1.481 1.321,-2.96 0.152,-1.441 -0.2,-3.146 -0.536,-4.363 1.519,1.334 3.909,3.896 4.237,7.024 0.51,4.872 -2.643,5.478 -2.673,5.483 -0.279,0.049 -1.88,0.134 -2.782,-0.608 -0.432,-0.356 -0.649,-0.853 -0.664,-1.517 z m -8.791,3.724 h 12.051 v 1.241 H 54.55 48.886 45.692 Z"
       id="path4"
       inkscape:connector-curvature="0" /></g><path
     style="fill:none;stroke:#000000;stroke-width:5;stroke-linecap:butt;stroke-linejoin:miter;stroke-opacity:1;stroke-miterlimit:4;stroke-dasharray:none"
     d="M 230.40234 154.13086 L 235.69922 799.3457 L 230.40234 154.13086 z M 222.98633 156.25 L 222.42188 794.81836 L 222.98633 156.25 z M 215.04297 158.89844 L 208.68555 795.13867 L 215.04297 158.89844 z "
     id="path20" /></svg>