<?xml version="1.0" encoding="UTF-8" standalone="no"?>
<svg
   xmlns:dc="http://purl.org/dc/elements/1.1/"
   xmlns:cc="http://creativecommons.org/ns#"
   xmlns:rdf="http://www.w3.org/1999/02/22-rdf-syntax-ns#"
   xmlns:svg="http://www.w3.org/2000/svg"
   xmlns="http://www.w3.org/2000/svg"
   xmlns:sodipodi="http://sodipodi.sourceforge.net/DTD/sodipodi-0.dtd"
   xmlns:inkscape="http://www.inkscape.org/namespaces/inkscape"
   version="1.1"
   x="0px"
   y="0px"
   viewBox="0 0 999.99994 631.72833"
   enable-background="new 0 0 100 100"
   xml:space="preserve"
   id="svg32"
   sodipodi:docname="motorcycle.svg"
   width="999.99994"
   height="631.72833"
   inkscape:version="0.92.2 (5c3e80d, 2017-08-06)"><metadata
     id="metadata38"><rdf:RDF><cc:Work
         rdf:about=""><dc:format>image/svg+xml</dc:format><dc:type
           rdf:resource="http://purl.org/dc/dcmitype/StillImage" /><dc:title></dc:title></cc:Work></rdf:RDF></metadata><defs
     id="defs36" /><sodipodi:namedview
     pagecolor="#ffffff"
     bordercolor="#666666"
     borderopacity="1"
     objecttolerance="10"
     gridtolerance="10"
     guidetolerance="10"
     inkscape:pageopacity="0"
     inkscape:pageshadow="2"
     inkscape:window-width="640"
     inkscape:window-height="480"
     id="namedview34"
     showgrid="false"
     fit-margin-top="0"
     fit-margin-left="0"
     fit-margin-right="0"
     fit-margin-bottom="0"
     inkscape:zoom="7.552"
     inkscape:cx="87.349505"
     inkscape:cy="-8.6005653"
     inkscape:current-layer="svg32" /><path
     d="M 338.43104,0.07162837 C 326.09424,-0.45345163 314.39446,1.9082684 303.44055,7.1590784 266.05063,25.115808 254.24898,69.463858 253.19881,73.789278 l -47.358,168.514912 c -51.56191,-9.16034 -104.19054,-0.0934 -150.075335,26.42056 -9.940144,5.7499 -13.32474,18.4706 -7.574844,28.41074 5.749896,9.94015 18.439893,13.35545 28.390435,7.59516 37.046794,-21.40874 78.573354,-28.08501 117.907624,-22.05438 l -5.56436,19.8002 c -7.66306,-1.09175 -15.42019,-1.84802 -23.37438,-1.84802 C 74.269053,300.62845 0,374.89751 0,466.1784 c 0,91.28089 74.269053,165.52963 165.54995,165.52963 91.28089,0 165.52964,-74.24873 165.52964,-165.52963 0,-68.77 -42.18843,-127.85216 -102.02686,-152.8169 l 5.54406,-19.69865 c 36.38134,14.5567 68.38025,40.77629 89.45627,77.25122 3.85752,6.66489 10.82833,10.39764 18.0131,10.39764 3.52479,0 7.12239,-0.88981 10.39764,-2.78218 9.94015,-5.74989 13.34504,-18.4706 7.59515,-28.41074 C 334.03365,305.0866 294.0068,271.28063 245.9489,253.20952 l 16.93678,-60.29413 c 0,0.58227 -0.0609,1.1439 -0.0609,1.72616 0,40.67558 32.96085,73.65674 73.63642,73.65674 40.67557,0 177.63314,8.6094 177.63314,-32.06617 0.0104,-40.67557 -136.95757,-115.22698 -177.63314,-115.22698 -27.23142,0 -50.93805,14.81777 -63.68556,36.77759 l 20.63282,-73.433342 c 1.89238,-7.71505 11.09705,-31.57098 28.04521,-39.70193 10.29366,-4.93888 22.81859,-3.84486 38.30068,3.37111 26.58677,12.36279 44.13344,21.31191 56.94334,27.86243 24.08093,12.3004 34.05438,17.40386 52.33344,17.40386 11.47899,0 20.79528,-9.31629 20.79528,-20.79528 0,-11.479 -9.31629,-20.79529 -20.79528,-20.79529 -7.80863,0 -11.10355,-1.44917 -33.40649,-12.83458 -13.10103,-6.69609 -31.06117,-15.85738 -58.34458,-28.5529 -13.54293,-6.3009696 -26.5122,-9.71009963 -38.849,-10.23517963 z M 179.64363,89.812208 c -22.96839,0 -22.96839,83.181132 0,83.181132 22.96839,0 41.59056,-18.62217 41.59056,-41.59056 0,-22.96839 -18.62217,-41.590572 -41.59056,-41.590572 z m 737.05468,13.037672 c -1.37748,-0.0933 -2.78315,-0.0502 -4.20373,0.14215 -11.38542,1.52846 -19.36918,12.00928 -17.83033,23.3947 6.02023,44.68906 1.10068,77.6205 -14.23584,95.22371 -2.02754,2.32907 -4.16441,4.1355 -6.27513,5.74714 2.6306,-26.11889 -1.00744,-56.48552 -30.80708,-61.28923 -53.71422,-8.67164 -253.00581,32.90886 -337.92335,13.84999 -84.90714,-19.06928 79.72879,32.92916 -3.45234,86.65378 h 236.81034 c -0.25994,2.01714 -0.33369,4.08318 0.0406,6.1939 l 6.51883,37.26498 c -64.57975,22.59408 -111.10449,83.96697 -111.10449,156.1474 0,91.28089 74.26906,165.54994 165.54995,165.54994 91.28089,0 165.54995,-74.26904 165.54995,-165.54994 0,-91.28089 -74.26906,-165.52964 -165.54995,-165.52964 -4.63735,0 -9.20468,0.31615 -13.74845,0.69047 l -3.93973,-22.54176 c 0.48869,0.0208 0.96308,0.11194 1.46217,0.10154 55.22188,-2.27708 131.06764,8.22583 179.13593,70.99639 4.09667,5.34439 10.28164,8.16377 16.53062,8.16377 4.4086,0 8.84726,-1.39441 12.61121,-4.28496 9.11871,-6.97681 10.86601,-20.0538 3.87881,-29.16214 -23.68583,-30.93298 -54.46789,-53.89877 -91.20275,-68.55945 2.08992,-1.89237 4.20698,-3.72463 6.23452,-5.97052 24.55923,-27.18983 33.02259,-70.67942 25.14117,-129.25973 -1.33739,-9.96224 -9.54857,-17.31929 -19.19096,-17.97249 z M 334.735,172.99334 h 22.54177 c 5.2612,0 9.5244,4.2528 9.5244,9.52441 v 1.74647 c 0,5.26121 -4.2731,9.52441 -9.54471,9.52441 H 334.735 c -5.2612,0 -9.52439,-4.27311 -9.52439,-9.54472 v -1.72616 c 0,-5.27162 4.25279,-9.52441 9.52439,-9.52441 z m 63.2591,103.97642 c -5.7395,0 -10.39764,4.65814 -10.39764,10.39764 0,5.7395 4.65814,10.39764 10.39764,10.39764 h 114.37405 c 5.7395,0 10.39765,-4.65814 10.39765,-10.39764 0,-5.7395 -4.65815,-10.39764 -10.39765,-10.39764 z m 215.12151,10.39764 c -30.06998,0 -59.15689,22.63891 -59.15689,52.71929 v 81.69865 c 0,30.08038 26.7208,55.31871 56.80117,55.31871 0,0.0104 -6.54937,-141.21086 99.16345,-189.73665 z M 397.9941,308.16268 c -5.7395,0 -10.39764,4.65815 -10.39764,10.39764 0,5.7395 4.65814,10.39764 10.39764,10.39764 h 114.37405 c 5.7395,0 10.39765,-4.65814 10.39765,-10.39764 0,-5.73949 -4.65815,-10.39764 -10.39765,-10.39764 z m 0,31.19293 c -5.7395,0 -10.39764,4.65814 -10.39764,10.39764 0,5.7395 4.65814,10.39764 10.39764,10.39764 h 114.37405 c 5.7395,0 10.39765,-4.65814 10.39765,-10.39764 0,-5.7395 -4.65815,-10.39764 -10.39765,-10.39764 z m -232.44415,2.88372 c 4.06548,0 8.06077,0.22452 12.02227,0.60923 l -36.14806,128.6505 c -3.10888,11.0527 3.32531,22.53998 14.378,25.64887 1.88197,0.53028 3.78442,0.77171 5.6456,0.77171 9.08753,0 17.42465,-5.99928 20.00327,-15.17 L 217.66,353.89605 c 42.3392,19.73473 71.82902,62.57123 71.82902,112.28235 0.0104,68.3437 -55.59538,123.95939 -123.93907,123.95937 -68.3437,0 -123.959384,-55.61567 -123.959384,-123.95937 0,-68.3437 55.615684,-123.93907 123.959384,-123.93907 z m 634.25613,0 c 68.34369,0 123.93907,55.59537 123.93907,123.93907 0,68.3437 -55.59538,123.95939 -123.93907,123.95937 -68.3437,0 -123.95939,-55.61567 -123.95939,-123.95937 0,-51.64508 31.78316,-95.95545 76.78415,-114.55683 l 22.58238,129.09728 c 1.7676,10.10651 10.56141,17.20079 20.47036,17.20079 1.19573,0 2.37797,-0.0967 3.59449,-0.30462 11.31264,-1.97555 18.88212,-12.75222 16.89617,-24.06486 l -22.9073,-130.9859 c 2.1731,-0.11438 4.33484,-0.32493 6.53914,-0.32493 z m -656.87912,13.4032 c -1.33318,-0.21883 -2.72403,-0.17546 -4.12251,0.16247 -51.114803,12.3524 -86.816243,57.73014 -86.816243,110.3734 0,62.61459 50.947143,113.56173 113.561743,113.56173 62.61459,0 113.54143,-50.94713 113.54143,-113.56173 0,-31.48405 -13.22775,-61.82292 -36.31052,-83.24206 -4.20064,-3.90951 -10.80379,-3.66273 -14.70291,0.54831 -3.90951,4.21106 -3.66273,10.7835 0.54831,14.68262 18.85093,17.50962 29.69014,42.28736 29.69014,68.01113 0,51.14599 -41.62045,92.76645 -92.76645,92.76645 -51.146,0 -92.746152,-41.62046 -92.746152,-92.76645 0,-43.00465 29.138412,-80.08134 70.874542,-90.16705 5.58354,-1.3517 9.02809,-6.96674 7.67639,-12.55028 -1.01377,-4.18765 -4.42826,-7.16202 -8.42777,-7.81854 z m 688.19389,2.15264 c -4.03803,0.3363 -7.66762,3.034 -9.01671,7.12807 -1.79879,5.45876 1.18192,11.3102 6.64068,13.0986 38.16974,12.51876 63.80741,47.93848 63.80741,88.15656 0,51.14599 -41.60016,92.76645 -92.74615,92.76645 -51.146,0 -92.76646,-41.62046 -92.76646,-92.76645 0,-30.50668 15.01711,-59.05503 40.16901,-76.3983 4.73093,-3.25446 5.90489,-9.759 2.64003,-14.47952 -3.26486,-4.73093 -9.7387,-5.91529 -14.45923,-2.64003 -30.77701,21.23199 -49.14509,56.20023 -49.14509,93.53816 0,62.6146 50.94714,113.54142 113.56174,113.54142 62.61459,0 113.54143,-50.92682 113.54143,-113.54142 0,-49.21204 -31.39747,-92.59003 -78.12447,-107.91615 -1.36729,-0.4497 -2.75618,-0.59949 -4.10219,-0.48739 z M 397.9941,370.54853 c -5.7395,0 -10.39764,4.65814 -10.39764,10.39764 0,5.7395 4.65814,10.39764 10.39764,10.39764 h 114.37405 c 5.7395,0 10.39765,-4.65814 10.39765,-10.39764 0,-5.7395 -4.65815,-10.39764 -10.39765,-10.39764 z m -39.70194,28.67474 c -1.36932,-0.12507 -2.76804,-0.0989 -4.18342,0.0609 -11.41661,1.26851 -19.64716,11.54171 -18.37865,22.94792 5.3132,47.80835 21.80272,82.88366 49.00295,104.24042 23.39469,18.37263 47.74955,21.07958 60.07075,21.07958 2.70339,0 4.83084,-0.12931 6.23452,-0.24369 h 154.90862 c 11.47899,0 20.79528,-9.31628 20.79528,-20.79528 0,-11.479 -9.31629,-20.79528 -20.79528,-20.79528 H 449.98231 l -2.39634,0.14215 c -6.13461,0.61347 -60.30892,3.5313 -70.509,-88.21748 -1.11905,-9.98954 -9.19956,-17.54374 -18.78481,-18.41927 z m 81.2925,23.31347 c -17.22889,0 -31.19292,13.96403 -31.19292,31.19292 0,17.22889 13.96403,31.19293 31.19292,31.19293 h 62.38585 c 17.2289,0 31.19293,-13.96404 31.19293,-31.19293 0,-17.22889 -13.96403,-31.19292 -31.19293,-31.19292 z"
     id="path2"
     inkscape:connector-curvature="0"
     style="stroke-width:10.39764118" /></svg>