<?xml version="1.0" encoding="UTF-8" standalone="no"?>
<svg
   xmlns:dc="http://purl.org/dc/elements/1.1/"
   xmlns:cc="http://creativecommons.org/ns#"
   xmlns:rdf="http://www.w3.org/1999/02/22-rdf-syntax-ns#"
   xmlns:svg="http://www.w3.org/2000/svg"
   xmlns="http://www.w3.org/2000/svg"
   xmlns:sodipodi="http://sodipodi.sourceforge.net/DTD/sodipodi-0.dtd"
   xmlns:inkscape="http://www.inkscape.org/namespaces/inkscape"
   version="1.1"
   x="0px"
   y="0px"
   viewBox="0 0 1000 579.64899"
   enable-background="new 0 0 100 100"
   xml:space="preserve"
   id="svg50"
   sodipodi:docname="motorcycle-o.svg"
   width="1000"
   height="579.64899"
   inkscape:version="0.92.2 (5c3e80d, 2017-08-06)"><metadata
     id="metadata56"><rdf:RDF><cc:Work
         rdf:about=""><dc:format>image/svg+xml</dc:format><dc:type
           rdf:resource="http://purl.org/dc/dcmitype/StillImage" /></cc:Work></rdf:RDF></metadata><defs
     id="defs54" /><sodipodi:namedview
     pagecolor="#ffffff"
     bordercolor="#666666"
     borderopacity="1"
     objecttolerance="10"
     gridtolerance="10"
     guidetolerance="10"
     inkscape:pageopacity="0"
     inkscape:pageshadow="2"
     inkscape:window-width="640"
     inkscape:window-height="480"
     id="namedview52"
     showgrid="false"
     inkscape:zoom="1.888"
     inkscape:cx="45.045001"
     inkscape:cy="13.609979"
     inkscape:current-layer="svg50" /><g
     id="g4"
     transform="matrix(11.100134,0,0,11.100134,-55.001164,-265.1822)"><path
       d="M 62.826,69.816 H 35.091 v -5.049 l 0.342,-0.34 c 0.061,-0.061 5.988,-6.013 5.988,-11.41 0,-3.799 7.117,-6.756 17.974,-10.834 4.668,-1.751 11.721,-4.4 12.199,-5.698 0.199,-2.241 -5.981,-6.861 -10.224,-9.267 l -3.149,-1.783 14.68,-1.545 0.37,0.29 c 1.169,0.917 11.437,9.135 11.695,14.992 0.059,1.364 -0.417,2.56 -1.38,3.462 l -0.313,0.292 -0.429,0.021 c -0.093,0.002 -9.215,0.492 -15.121,7.185 -3.931,4.452 -5.612,10.653 -4.998,18.434 z m -25.414,-2.32 h 22.922 c -0.395,-7.861 1.511,-14.225 5.669,-18.921 5.822,-6.58 14.136,-7.724 16.249,-7.912 0.295,-0.385 0.422,-0.833 0.396,-1.389 C 82.476,35.363 75.374,28.849 72.204,26.296 l -6.747,0.711 c 3.575,2.352 8.745,6.364 8.439,9.731 -0.225,2.452 -4.847,4.298 -13.686,7.618 -6.16,2.313 -16.469,6.183 -16.469,8.661 0,5.602 -4.953,11.24 -6.33,12.702 v 1.777 z"
       id="path2"
       inkscape:connector-curvature="0" /></g><g
     id="g8"
     transform="matrix(11.100134,0,0,11.100134,-55.001164,-265.1822)"><path
       d="m 40.169,62.17 -2.252,-0.559 c 0.89,-3.6 -0.614,-8.958 -3.578,-12.742 -2.236,-2.857 -4.994,-4.432 -7.767,-4.432 -8.646,0 -19.302,-9.235 -19.75,-9.629 L 6.426,34.461 V 30.08 h 14.702 l 10.053,7.541 h 6.748 c 1.948,-7.541 9.423,-7.541 17.317,-7.541 8.596,0 15.806,7.583 16.109,7.907 l -1.692,1.586 C 69.595,39.503 62.827,32.4 55.246,32.4 c -8.703,0 -14.095,0.317 -15.242,6.589 L 39.83,39.941 H 30.407 L 20.353,32.4 H 8.746 v 0.997 c 1.976,1.638 10.917,8.721 17.827,8.721 3.5,0 6.908,1.89 9.595,5.32 3.418,4.371 5.066,10.429 4.001,14.732 z"
       id="path6"
       inkscape:connector-curvature="0" /></g><g
     id="g12"
     transform="matrix(11.100134,0,0,11.100134,-55.001164,-265.1822)"><path
       d="m 19.345,76.11 c -7.935,0 -14.39,-6.458 -14.39,-14.394 0,-7.933 6.455,-14.388 14.39,-14.388 5.034,0 9.62,2.576 12.264,6.888 L 32.4,55.505 19.675,59.28 c -0.451,0.135 -1.452,0.615 -1.667,1.219 -0.111,0.316 0.002,0.734 0.344,1.238 0.032,0.037 0.97,1.052 8.411,1.052 1.912,0 3.861,-0.065 5.576,-0.149 l 1.425,-0.07 -0.222,1.41 c -1.115,7.028 -7.085,12.13 -14.197,12.13 z m 0,-26.461 c -6.654,0 -12.069,5.414 -12.069,12.068 0,6.656 5.415,12.074 12.069,12.074 5.479,0 10.148,-3.609 11.598,-8.767 -1.344,0.05 -2.771,0.086 -4.18,0.086 -7.88,0 -9.647,-1.052 -10.336,-2.077 -0.967,-1.435 -0.861,-2.6 -0.6,-3.322 0.673,-1.867 2.936,-2.58 3.192,-2.655 l 9.729,-2.887 c -2.282,-2.855 -5.697,-4.52 -9.403,-4.52 z"
       id="path10"
       inkscape:connector-curvature="0" /></g><g
     id="g16"
     transform="matrix(11.100134,0,0,11.100134,-55.001164,-265.1822)"><polygon
       points="10.155,35.332 9.582,38.262 17.727,39.505 17.378,41.798 6.84,40.192 7.88,34.888 "
       id="polygon14" /></g><g
     id="g20"
     transform="matrix(11.100134,0,0,11.100134,-55.001164,-265.1822)"><rect
       x="68.217003"
       y="50.93"
       transform="matrix(0.414,0.9103,-0.9103,0.414,92.2188,-39.07)"
       width="16.474001"
       height="2.3199999"
       id="rect18" /></g><g
     id="g24"
     transform="matrix(11.100134,0,0,11.100134,-55.001164,-265.1822)"><path
       d="m 80.652,76.11 c -7.935,0 -14.39,-6.458 -14.39,-14.394 0,-2.919 0.875,-5.734 2.529,-8.141 l 0.414,-0.604 8.712,1.373 11.592,-3.98 0.505,0.436 c 3.197,2.745 5.03,6.725 5.03,10.916 C 95.045,69.652 88.59,76.11 80.652,76.11 Z M 70.312,55.497 c -1.133,1.878 -1.729,4.013 -1.729,6.22 0,6.656 5.415,12.074 12.069,12.074 6.657,0 12.072,-5.418 12.072,-12.074 0,-3.297 -1.355,-6.439 -3.738,-8.719 l -10.86,3.731 z"
       id="path22"
       inkscape:connector-curvature="0" /></g><g
     id="g28"
     transform="matrix(11.100134,0,0,11.100134,-55.001164,-265.1822)"><path
       d="m 80.652,65.488 c -1.984,0 -3.6,-1.613 -3.6,-3.598 0,-1.985 1.615,-3.6 3.6,-3.6 1.985,0 3.599,1.615 3.599,3.6 0,1.985 -1.613,3.598 -3.599,3.598 z m 0,-4.877 c -0.706,0 -1.279,0.572 -1.279,1.279 0,0.705 0.573,1.277 1.279,1.277 0.705,0 1.278,-0.572 1.278,-1.277 10e-4,-0.706 -0.573,-1.279 -1.278,-1.279 z"
       id="path26"
       inkscape:connector-curvature="0" /></g><g
     id="g32"
     transform="matrix(11.100134,0,0,11.100134,-55.001164,-265.1822)"><path
       d="m 78.126,56.729 -11.41,-1.799 0.923,-1.486 c 2.902,-4.674 7.902,-7.466 13.374,-7.466 3.999,0 7.819,1.516 10.753,4.267 l 1.407,1.318 z m -7.468,-3.528 7.26,1.145 10.696,-3.67 c -2.229,-1.543 -4.866,-2.377 -7.602,-2.377 -4.059,0 -7.816,1.805 -10.354,4.902 z"
       id="path30"
       inkscape:connector-curvature="0" /></g><g
     id="g36"
     transform="matrix(11.100134,0,0,11.100134,-55.001164,-265.1822)"><path
       d="m 80.719,71.887 c -5.61,0 -10.174,-4.559 -10.174,-10.162 0,-2.87 1.251,-5.629 3.429,-7.571 l 0.41,-0.367 3.534,0.56 6.328,-2.173 0.408,0.173 c 3.783,1.59 6.226,5.271 6.226,9.379 0,5.602 -4.559,10.161 -10.161,10.161 z m -5.59,-15.633 c -1.464,1.481 -2.264,3.405 -2.264,5.471 0,4.324 3.523,7.842 7.854,7.842 4.322,0 7.842,-3.518 7.842,-7.842 0,-3.026 -1.718,-5.754 -4.414,-7.064 l -6.021,2.069 z"
       id="path34"
       inkscape:connector-curvature="0" /></g><g
     id="g40"
     transform="matrix(11.100134,0,0,11.100134,-55.001164,-265.1822)"><path
       d="m 27.114,65.14 c -4.93,0 -9.582,-0.464 -10.688,-2.104 -0.967,-1.437 -0.861,-2.602 -0.6,-3.324 0.673,-1.867 2.936,-2.58 3.192,-2.655 l 18.529,-5.499 0.662,2.225 -18.534,5.5 c -0.451,0.135 -1.452,0.615 -1.667,1.219 -0.111,0.316 0.002,0.734 0.342,1.238 0.974,1.152 9.86,1.405 19.408,0.545 l 0.208,2.311 C 35.354,64.83 31.142,65.14 27.114,65.14 Z"
       id="path38"
       inkscape:connector-curvature="0" /></g><g
     id="g44"
     transform="matrix(11.100134,0,0,11.100134,-55.001164,-265.1822)"><path
       d="m 19.261,71.887 c -5.61,0 -10.173,-4.559 -10.173,-10.162 0,-5.609 4.563,-10.172 10.173,-10.172 3.07,0 5.95,1.4 7.901,3.84 l 1.076,1.348 -8.563,2.541 c -0.451,0.135 -1.452,0.615 -1.667,1.219 -0.111,0.316 0.002,0.734 0.344,1.238 0.03,0.037 0.97,1.047 8.422,1.047 l 2.678,-0.027 -0.374,1.467 c -1.148,4.509 -5.186,7.661 -9.817,7.661 z m 0,-18.014 c -4.33,0 -7.853,3.522 -7.853,7.852 0,4.324 3.523,7.842 7.853,7.842 3.05,0 5.764,-1.773 7.044,-4.461 -7.488,-0.041 -9.201,-1.066 -9.879,-2.07 -0.967,-1.437 -0.861,-2.602 -0.6,-3.324 0.673,-1.867 2.936,-2.58 3.192,-2.655 l 5.045,-1.497 c -1.365,-1.087 -3.044,-1.687 -4.802,-1.687 z"
       id="path42"
       inkscape:connector-curvature="0" /></g></svg>