<?xml version="1.0" encoding="UTF-8" standalone="no"?>
<svg
   xmlns:dc="http://purl.org/dc/elements/1.1/"
   xmlns:cc="http://creativecommons.org/ns#"
   xmlns:rdf="http://www.w3.org/1999/02/22-rdf-syntax-ns#"
   xmlns:svg="http://www.w3.org/2000/svg"
   xmlns="http://www.w3.org/2000/svg"
   xmlns:sodipodi="http://sodipodi.sourceforge.net/DTD/sodipodi-0.dtd"
   xmlns:inkscape="http://www.inkscape.org/namespaces/inkscape"
   xml:space="preserve"
   style="clip-rule:evenodd;fill-rule:evenodd;image-rendering:optimizeQuality;shape-rendering:geometricPrecision;text-rendering:geometricPrecision"
   viewBox="0 0 641.60543 999.99999"
   x="0px"
   y="0px"
   version="1.1"
   id="svg22"
   sodipodi:docname="pants.svg"
   width="641.60541"
   height="1000"
   inkscape:version="0.92.2 (5c3e80d, 2017-08-06)"><metadata
     id="metadata26"><rdf:RDF><cc:Work
         rdf:about=""><dc:format>image/svg+xml</dc:format><dc:type
           rdf:resource="http://purl.org/dc/dcmitype/StillImage" /><dc:title></dc:title></cc:Work></rdf:RDF></metadata><sodipodi:namedview
     pagecolor="#ffffff"
     bordercolor="#666666"
     borderopacity="1"
     objecttolerance="10"
     gridtolerance="10"
     guidetolerance="10"
     inkscape:pageopacity="0"
     inkscape:pageshadow="2"
     inkscape:window-width="640"
     inkscape:window-height="480"
     id="namedview24"
     showgrid="false"
     fit-margin-top="0"
     fit-margin-left="0"
     fit-margin-right="0"
     fit-margin-bottom="0"
     inkscape:zoom="16"
     inkscape:cx="19.224946"
     inkscape:cy="0.37873548"
     inkscape:current-layer="svg22" /><defs
     id="defs4"><style
       type="text/css"
       id="style2">
   
    .fil0 {fill:black}
   
  </style></defs><g
     id="g16"
     transform="scale(3116.965)"><path
       class="fil0"
       d="M 0,0.0706207 V 0.0364324 h 0.0214799 c 0.0020669,0.0034094 0.0032519,0.0074172 0.0032519,0.0117006 0,0.00624 -0.0025196,0.0118974 -0.0065983,0.0159721 h -1.968e-5 C 0.01403122,0.0681877 0.00837779,0.0707231 0.00214562,0.0707231 0.00142122,0.0707231 7.08635e-4,0.07068767 0,0.0706207 Z"
       id="path6"
       inkscape:connector-curvature="0"
       style="fill:#000000" /><path
       class="fil0"
       d="m 0.205843,0.0776009 v 0.243224 H 0.1198486 L 0.1072071,0.1143679 H 0.0986403 L 0.0859909,0.3208249 H 4.3e-7 v -0.243224 c 7.08648e-4,4.724e-5 0.00142517,7.48e-5 0.00214563,7.48e-5 0.016295,0 0.0295427,-0.0132399 0.0295427,-0.0295388 0,-0.0041574 -8.6219e-4,-0.008118 -0.0024173,-0.0117045 h 0.147292 c -0.001547,0.0035866 -0.002405,0.0075392 -0.002405,0.0117045 0,0.0081534 0.003307,0.0155391 0.008657,0.0208854 0.005342,0.0053424 0.0127242,0.0086534 0.0208854,0.0086534 7.2046e-4,0 0.001437,-2.756e-5 0.002142,-7.48e-5 z"
       id="path8"
       inkscape:connector-curvature="0"
       style="fill:#000000" /><path
       class="fil0"
       d="m 0.205843,0.0364324 v 0.0341883 c -7.0471e-4,6.693e-5 -0.001417,1.0236e-4 -0.002142,1.0236e-4 -0.006236,0 -0.0118856,-0.0025354 -0.0159721,-0.006618 -0.004083,-0.0040865 -0.006618,-0.009736 -0.006618,-0.0159721 0,-0.0042834 0.001193,-0.0082872 0.003268,-0.0117006 z"
       id="path10"
       inkscape:connector-curvature="0"
       style="fill:#000000" /><path
       class="fil0"
       d="M 0,0 H 0.205843 V 0.0299955 H 0 Z m 0.0869038,0.00522825 h 0.0320388 v 0.019539 H 0.0869038 Z"
       id="path12"
       inkscape:connector-curvature="0"
       style="fill:#000000" /><polygon
       class="fil0"
       points="0.11599,0.00874786 0.0898526,0.00874786 0.0898526,0.0212476 0.11599,0.0212476 "
       id="polygon14"
       style="fill:#000000" /></g></svg>