<?xml version="1.0" encoding="UTF-8" standalone="no"?>
<svg
   xmlns:dc="http://purl.org/dc/elements/1.1/"
   xmlns:cc="http://creativecommons.org/ns#"
   xmlns:rdf="http://www.w3.org/1999/02/22-rdf-syntax-ns#"
   xmlns:svg="http://www.w3.org/2000/svg"
   xmlns="http://www.w3.org/2000/svg"
   xmlns:sodipodi="http://sodipodi.sourceforge.net/DTD/sodipodi-0.dtd"
   xmlns:inkscape="http://www.inkscape.org/namespaces/inkscape"
   version="1.1"
   x="0px"
   y="0px"
   viewBox="0 0 878.90924 999.99999"
   xml:space="preserve"
   id="svg18"
   sodipodi:docname="pants-o.svg"
   width="878.90924"
   height="1000"
   inkscape:version="0.92.2 (5c3e80d, 2017-08-06)"><metadata
     id="metadata24"><rdf:RDF><cc:Work
         rdf:about=""><dc:format>image/svg+xml</dc:format><dc:type
           rdf:resource="http://purl.org/dc/dcmitype/StillImage" /></cc:Work></rdf:RDF></metadata><defs
     id="defs22" /><sodipodi:namedview
     pagecolor="#ffffff"
     bordercolor="#666666"
     borderopacity="1"
     objecttolerance="10"
     gridtolerance="10"
     guidetolerance="10"
     inkscape:pageopacity="0"
     inkscape:pageshadow="2"
     inkscape:window-width="640"
     inkscape:window-height="480"
     id="namedview20"
     showgrid="false"
     inkscape:zoom="0.26074563"
     inkscape:cx="666.44251"
     inkscape:cy="-163.27088"
     inkscape:current-layer="svg18" /><style
     type="text/css"
     id="style2">
	.st0{fill:#231F20;}
	.st1{fill:none;stroke:#231F20;stroke-width:2;stroke-linecap:round;stroke-linejoin:round;stroke-miterlimit:10;}
	.st2{fill:#FFFFFF;}
	.st3{fill:#151719;}
	.st4{fill-rule:evenodd;clip-rule:evenodd;fill:#151719;}
	.st5{fill-rule:evenodd;clip-rule:evenodd;fill:#231F20;}
	.st6{fill:#1C1B1A;}
	.st7{display:none;}
	.st8{display:inline;fill:#231F20;}
	.st9{display:inline;}
	.st10{fill:none;}
	.st11{display:none;fill:#231F20;}
	.st12{display:inline;fill:none;}
	.st13{clip-path:url(#SVGID_2_);}
	.st14{clip-path:url(#SVGID_4_);}
	.st15{display:inline;fill:none;stroke:#231F20;stroke-width:2;stroke-linejoin:round;stroke-miterlimit:10;}
	.st16{display:inline;fill:none;stroke:#231F20;stroke-width:3;stroke-linecap:round;stroke-linejoin:round;stroke-miterlimit:10;}
	.st17{display:inline;fill:none;stroke:#231F20;stroke-width:2;stroke-linecap:round;stroke-linejoin:round;stroke-miterlimit:10;}
	.st18{display:inline;fill:none;stroke:#231F20;stroke-width:9;stroke-linejoin:round;stroke-miterlimit:10;}
	.st19{display:inline;fill:none;stroke:#231F20;stroke-width:3;stroke-linejoin:round;stroke-miterlimit:10;}
	.st20{display:inline;fill:none;stroke:#231F20;stroke-width:6;stroke-linejoin:round;stroke-miterlimit:10;}
	.st21{display:inline;fill:none;stroke:#231F20;stroke-width:3;stroke-linecap:round;stroke-miterlimit:10;}
	.st22{display:none;fill:none;stroke:#231F20;stroke-width:2;stroke-linejoin:round;stroke-miterlimit:10;}
	.st23{display:none;fill:none;stroke:#231F20;stroke-width:3;stroke-linejoin:round;stroke-miterlimit:10;}
	.st24{fill:none;stroke:#231F20;stroke-width:3;stroke-linejoin:round;stroke-miterlimit:10;}
	.st25{fill:none;stroke:#231F20;stroke-width:2;stroke-linejoin:round;stroke-miterlimit:10;}
</style><path
     d="M 878.13495,893.08176 731.90854,45.59748 C 727.19156,23.58491 708.32363,0 684.73873,0 H 194.17269 C 170.58778,0 151.71985,23.58491 147.00287,45.59748 L 0.7764578,889.93711 c -4.7169811,25.15723 12.5786162,51.88679 37.7358492,56.60377 l 276.729563,50.31447 c 3.14466,0 6.28931,1.57232 7.86164,1.57232 22.01257,0 42.45283,-15.72327 47.16981,-39.30817 l 69.18239,-382.07547 67.61006,383.64779 C 511.78275,984.27673 530.65068,1000 554.23558,1000 c 3.14466,0 6.28931,0 7.86164,0 l 276.72956,-48.74214 c 26.72956,-7.86163 44.02515,-31.44654 39.30817,-58.1761 z M 714.61294,223.27044 c -17.2956,3.14465 -58.1761,4.71698 -91.19497,-18.86792 C 604.55005,191.8239 591.97143,172.95597 584.1098,141.50943 H 700.462 Z M 684.73873,47.16981 695.74502,110.06289 H 580.96514 V 47.16981 Z m -135.22013,0 v 62.89308 H 455.17898 V 47.16981 Z m -125.78616,0 v 62.89308 H 329.39281 V 47.16981 Z m -125.78617,0 v 62.89308 H 183.1664 l 11.00629,-62.89308 z m -119.49685,94.33962 h 116.3522 c -6.28931,31.44654 -20.44025,51.8868 -39.30818,64.46541 -31.44654,22.01258 -73.89937,17.2956 -91.19497,15.72327 z M 324.67583,951.25786 47.946269,897.79874 55.807904,853.77359 332.53747,905.66038 Z M 439.45571,306.60377 337.25445,875.78616 60.524885,823.89937 159.58149,257.86164 c 6.28931,1.57232 15.72327,1.57232 28.30189,1.57232 25.15723,0 56.60377,-7.86163 84.90566,-28.30188 26.72956,-18.86793 44.02516,-44.02516 53.45912,-91.19497 h 97.48428 V 250 h 31.44654 V 139.93711 h 97.48427 c 7.86164,47.16981 25.15724,72.32704 53.45912,91.19497 28.30189,18.86792 59.74843,26.72956 84.90566,26.72956 12.57862,0 22.01258,0 29.87422,-1.57233 l 99.0566,566.03773 -276.72956,53.45912 z m 114.77987,643.08176 -7.86163,-42.45283 276.72956,-51.88679 7.86163,44.02516 z"
     id="path4"
     inkscape:connector-curvature="0"
     style="stroke-width:15.72327042" /></svg>