<?xml version="1.0" encoding="UTF-8" standalone="no"?>
<svg
   xmlns:dc="http://purl.org/dc/elements/1.1/"
   xmlns:cc="http://creativecommons.org/ns#"
   xmlns:rdf="http://www.w3.org/1999/02/22-rdf-syntax-ns#"
   xmlns:svg="http://www.w3.org/2000/svg"
   xmlns="http://www.w3.org/2000/svg"
   xmlns:sodipodi="http://sodipodi.sourceforge.net/DTD/sodipodi-0.dtd"
   xmlns:inkscape="http://www.inkscape.org/namespaces/inkscape"
   version="1.1"
   x="0px"
   y="0px"
   viewBox="0 0 1113.5155 1000"
   xml:space="preserve"
   id="svg8"
   sodipodi:docname="shirt.svg"
   width="1113.5155"
   height="1000"
   inkscape:version="0.92.2 (5c3e80d, 2017-08-06)"><metadata
     id="metadata14"><rdf:RDF><cc:Work
         rdf:about=""><dc:format>image/svg+xml</dc:format><dc:type
           rdf:resource="http://purl.org/dc/dcmitype/StillImage" /><dc:title /></cc:Work></rdf:RDF></metadata><defs
     id="defs12" /><sodipodi:namedview
     pagecolor="#ffffff"
     bordercolor="#666666"
     borderopacity="1"
     objecttolerance="10"
     gridtolerance="10"
     guidetolerance="10"
     inkscape:pageopacity="0"
     inkscape:pageshadow="2"
     inkscape:window-width="640"
     inkscape:window-height="480"
     id="namedview10"
     showgrid="false"
     fit-margin-top="0"
     fit-margin-left="0"
     fit-margin-right="0"
     fit-margin-bottom="0"
     inkscape:zoom="0.39732667"
     inkscape:cx="521.18608"
     inkscape:cy="-164.98051"
     inkscape:current-layer="svg8" /><path
     d="m 271.04348,1000 h 571.42857 c 26.19047,0 47.61905,-21.42857 47.61905,-47.61905 V 405.09524 l 17.38095,26.09524 c 14.52381,21.7619 44.28571,27.71428 66.04762,13.19047 l 118.85713,-79.23809 c 21.7619,-14.52381 27.7143,-44.28572 13.1905,-66.04762 L 932.56729,39.61905 C 918.0911,17.85714 884.75776,0 858.56729,0 H 699.6149 c 0,78.85714 -64,142.85714 -142.85714,142.85714 -78.85714,0 -142.85714,-64 -142.85714,-142.85714 H 254.94824 C 228.75777,0 195.42443,17.85714 180.90062,39.61905 L 7.948242,299.09524 c -14.5238095,21.7619 -8.57142849,51.52381 13.190476,66.04762 l 118.857142,79.23809 c 21.76191,14.52381 51.52381,8.57143 66.04762,-13.19047 l 17.38095,-26.09524 v 547.28571 c 0,26.19048 21.42857,47.61905 47.61905,47.61905 z"
     id="path2"
     inkscape:connector-curvature="0"
     style="stroke-width:47.61904907" /></svg>