<?xml version="1.0" encoding="UTF-8" standalone="no"?>
<svg
   xmlns:dc="http://purl.org/dc/elements/1.1/"
   xmlns:cc="http://creativecommons.org/ns#"
   xmlns:rdf="http://www.w3.org/1999/02/22-rdf-syntax-ns#"
   xmlns:svg="http://www.w3.org/2000/svg"
   xmlns="http://www.w3.org/2000/svg"
   xmlns:sodipodi="http://sodipodi.sourceforge.net/DTD/sodipodi-0.dtd"
   xmlns:inkscape="http://www.inkscape.org/namespaces/inkscape"
   version="1.1"
   x="0px"
   y="0px"
   viewBox="0 0 999.99994 737.00446"
   enable-background="new 0 0 100 100"
   xml:space="preserve"
   id="svg10"
   sodipodi:docname="shirt-o.svg"
   width="999.99994"
   height="737.00446"
   inkscape:version="0.92.2 (5c3e80d, 2017-08-06)"><metadata
     id="metadata16"><rdf:RDF><cc:Work
         rdf:about=""><dc:format>image/svg+xml</dc:format><dc:type
           rdf:resource="http://purl.org/dc/dcmitype/StillImage" /></cc:Work></rdf:RDF></metadata><defs
     id="defs14" /><sodipodi:namedview
     pagecolor="#ffffff"
     bordercolor="#666666"
     borderopacity="1"
     objecttolerance="10"
     gridtolerance="10"
     guidetolerance="10"
     inkscape:pageopacity="0"
     inkscape:pageshadow="2"
     inkscape:window-width="640"
     inkscape:window-height="480"
     id="namedview12"
     showgrid="false"
     inkscape:zoom="1.888"
     inkscape:cx="36.46501"
     inkscape:cy="14.679966"
     inkscape:current-layer="svg10" /><g
     id="g4"
     transform="matrix(13.711966,0,0,13.711966,-185.59146,-321.28508)"><path
       d="M 70.482,26.175 56.459,23.431 v 2.057 c 0,3.56 -2.898,6.456 -6.459,6.456 -3.561,0 -6.458,-2.896 -6.458,-6.456 V 23.431 L 29.521,26.175 13.535,40.55 25.486,53.504 28.611,51.087 V 77.18 H 71.387 V 51.087 l 3.127,2.417 11.95,-12.954 z m -2.48,47.618 H 31.997 V 62.65 h 36.005 z m 0,-14.527 H 31.997 V 55.352 H 68.002 Z M 74.133,48.928 68.002,44.19 v 7.777 H 31.997 V 44.19 L 25.87,48.928 18.349,40.776 31.088,29.32 40.364,27.504 c 0.933,4.464 4.898,7.826 9.635,7.826 4.739,0 8.705,-3.362 9.637,-7.826 l 9.278,1.816 12.736,11.456 z"
       id="path2"
       inkscape:connector-curvature="0" /></g></svg>