<?xml version="1.0" encoding="UTF-8" standalone="no"?>
<svg
   xmlns:dc="http://purl.org/dc/elements/1.1/"
   xmlns:cc="http://creativecommons.org/ns#"
   xmlns:rdf="http://www.w3.org/1999/02/22-rdf-syntax-ns#"
   xmlns:svg="http://www.w3.org/2000/svg"
   xmlns="http://www.w3.org/2000/svg"
   xmlns:sodipodi="http://sodipodi.sourceforge.net/DTD/sodipodi-0.dtd"
   xmlns:inkscape="http://www.inkscape.org/namespaces/inkscape"
   version="1.1"
   x="0px"
   y="0px"
   viewBox="0 0 1000.0001 428.1217"
   enable-background="new 0 0 96 96"
   xml:space="preserve"
   id="svg8"
   sodipodi:docname="shoe-o.svg"
   width="1000.0001"
   height="428.1217"
   inkscape:version="0.92.2 (5c3e80d, 2017-08-06)"><metadata
     id="metadata14"><rdf:RDF><cc:Work
         rdf:about=""><dc:format>image/svg+xml</dc:format><dc:type
           rdf:resource="http://purl.org/dc/dcmitype/StillImage" /></cc:Work></rdf:RDF></metadata><defs
     id="defs12" /><sodipodi:namedview
     pagecolor="#ffffff"
     bordercolor="#666666"
     borderopacity="1"
     objecttolerance="10"
     gridtolerance="10"
     guidetolerance="10"
     inkscape:pageopacity="0"
     inkscape:pageshadow="2"
     inkscape:window-width="640"
     inkscape:window-height="480"
     id="namedview10"
     showgrid="false"
     inkscape:zoom="0.34766083"
     inkscape:cx="1074.7943"
     inkscape:cy="-1457.2884"
     inkscape:current-layer="svg8" /><path
     d="m 973.55658,256.71812 c -14.80866,-22.11473 -56.21741,-31.52476 -117.57913,-45.39704 -11.34059,-2.56637 -23.35167,-5.28303 -35.95232,-8.24245 -11.13251,-2.62417 -24.7967,-6.83209 -40.11401,-12.17292 C 720.19096,167.14943 439.36978,21.87198 412.59628,6.4043904 381.19868,-11.74518 363.01444,12.47351 348.42542,31.9525 c -1.89588,2.52014 -3.82643,5.09807 -5.80323,7.65288 -15.38667,19.77956 -9.36379,40.83074 -4.36977,51.70892 -49.03851,35.47836 -107.47549,47.46632 -164.8258,32.7039 C 144.81504,116.64277 127.55561,103.78779 113.68333,93.47606 98.07702,81.86959 84.620906,71.81219 64.170853,76.49408 30.76178,84.1354 22.727418,213.04355 20.808419,279.05249 l -0.416168,-0.0925 -3.525871,4.33508 C 2.4970103,300.98225 0.3005661,341.95171 0.0462409,379.68431 L 0,386.45861 6.554652,388.1464 c 4.115443,1.05199 103.313798,25.91805 311.293958,29.61732 44.20633,0.7861 83.58048,3.12126 121.65989,5.36395 43.43179,2.56637 84.4475,4.99402 129.20872,4.99402 0.0116,0 0.0116,0 0.0347,0 87.27976,0 205.95712,-8.06904 424.29524,-67.87013 l 5.99974,-1.64155 0.3584,-6.21941 c 4.3004,-73.49996 -15.79131,-91.32584 -25.84872,-95.67248 z M 356.3095,50.26391 c 2.04616,-2.63573 4.03452,-5.29458 5.9882,-7.89564 17.44439,-23.25918 25.02791,-30.54213 41.6284,-20.93558 5.66452,3.27155 22.75054,12.38101 46.62242,24.87762 -55.70876,-13.27114 -85.3492,22.25345 -85.2914,22.24189 -4.16168,4.10389 -8.46209,7.94188 -12.8203,11.65272 -2.71665,-7.7338 -4.39288,-19.31715 3.87268,-29.94101 z M 68.031971,93.4067 c 12.057323,-2.75133 19.987643,2.5895 35.293389,13.98789 15.08611,11.22498 33.85993,25.2013 65.76617,33.42063 73.19939,18.85474 151.1038,-3.54899 208.99745,-60.65654 1.1329,-1.38723 24.39209,-28.70406 70.59834,-16.51958 l -1.9768,3.27155 c -0.82077,-0.0925 -1.62999,-0.24277 -2.47389,-0.24277 -11.61803,0 -21.08586,9.45628 -21.08586,21.08587 0,11.62959 9.45627,21.0743 21.08586,21.0743 11.6296,0 21.07431,-9.45627 21.07431,-21.0743 0,-4.42757 -1.38723,-8.53145 -3.7224,-11.93016 l 3.84956,-6.38125 c 3.21375,1.38723 6.46217,2.84382 9.84932,4.60097 8.04592,4.17325 17.46751,8.94762 27.5596,13.98789 l -3.50276,5.80323 c -0.82077,-0.0925 -1.61843,-0.24276 -2.46232,-0.24276 -11.61804,0 -21.08587,9.45627 -21.08587,21.0743 0,11.61804 9.45627,21.07431 21.08587,21.07431 11.62959,0 21.0743,-9.45627 21.0743,-21.07431 0,-4.42757 -1.38723,-8.53145 -3.73396,-11.93016 l 4.23105,-6.98238 c 11.76832,5.78012 24.33429,11.87236 37.62856,18.20737 l -4.10388,6.78585 c -0.82078,-0.0925 -1.61844,-0.24276 -2.46233,-0.24276 -11.61804,0 -21.08587,9.45627 -21.08587,21.0743 0,11.61804 9.45627,21.07431 21.08587,21.07431 11.62959,0 21.0743,-9.45627 21.0743,-21.07431 0,-4.42756 -1.38723,-8.53145 -3.73395,-11.93016 l 4.9709,-8.21932 c 12.3232,5.80324 25.07414,11.69895 37.99848,17.59467 l -5.21366,8.62394 c -0.82078,-0.0925 -1.63,-0.24277 -2.47389,-0.24277 -11.61804,0 -21.07431,9.45627 -21.07431,21.07431 0,11.61803 9.45627,21.08586 21.07431,21.08586 11.61803,0 21.08586,-9.45627 21.08586,-21.08586 0,-4.42757 -1.38723,-8.53146 -3.73395,-11.93016 l 6.23096,-10.30017 c 12.7625,5.76855 25.60592,11.44463 38.36842,16.99354 l -6.84366,11.31747 c -0.82078,-0.0925 -1.63,-0.24277 -2.47389,-0.24277 -11.61804,0 -21.07431,9.45627 -21.07431,21.07431 0,11.61803 9.45627,21.0743 21.07431,21.0743 11.61803,0 21.08586,-9.45627 21.08586,-21.0743 0,-4.42757 -1.38723,-8.53145 -3.73395,-11.93016 l 8.04592,-13.29427 c 13.16711,5.61827 26.19549,11.08626 38.72678,16.14965 l -5.19054,8.34648 c -0.89014,-0.1156 -1.78028,-0.26588 -2.7051,-0.26588 -11.61803,0 -21.0743,9.45627 -21.0743,21.0743 0,11.61804 9.45627,21.08587 21.0743,21.08587 11.61804,0 21.08587,-9.45627 21.08587,-21.08587 0,-4.33508 -1.32943,-8.38117 -3.59524,-11.74519 l 6.78586,-10.93598 c 13.29427,5.2021 25.84868,9.87244 37.57076,13.96476 0.25432,0.10404 0.60113,0.24276 0.85545,0.34681 l 0.0116,-0.0463 c 16.09184,5.59516 30.59993,10.12677 42.32201,12.88966 12.64689,2.98254 24.71578,5.71076 36.10261,8.27713 45.33923,10.25393 82.82907,18.7507 99.88041,31.05079 -195.48354,53.88224 -300.92443,61.39639 -378.1121,61.39639 -43.69768,0 -83.47644,-2.77445 -125.59037,-5.69919 -38.87707,-2.70509 -79.08356,-5.51423 -125.53257,-6.35813 C 162.20163,305.69882 69.430759,289.58386 38.056287,283.08701 40.796062,184.29326 54.518059,96.50485 68.031971,93.4067 Z M 447.23073,89.55715 c -0.65893,1.08666 -1.62999,1.93055 -2.98254,1.93055 -2.06928,0 -3.74551,-1.67623 -3.74551,-3.73395 0,-0.70517 0.41617,-1.24851 0.75141,-1.81496 z m 52.63375,26.91222 c -0.65894,1.08666 -1.63,1.93056 -2.98254,1.93056 -2.06929,0 -3.74552,-1.67624 -3.74552,-3.73396 0,-0.70517 0.41617,-1.2485 0.75141,-1.81495 z m 52.6453,26.91222 c -0.65894,1.08666 -1.63,1.93056 -2.98254,1.93056 -2.06929,0 -3.74552,-1.67623 -3.74552,-3.73396 0,-0.70517 0.41617,-1.2485 0.75142,-1.81495 z m 52.63374,26.91222 c -0.65894,1.08667 -1.63,1.93056 -2.9941,1.93056 -2.05772,0 -3.73396,-1.67623 -3.73396,-3.74551 0,-0.70518 0.41617,-1.23695 0.75142,-1.8034 z m 52.63374,26.91223 c -0.65893,1.0751 -1.62999,1.93055 -2.9941,1.93055 -2.05772,0 -3.73396,-1.67623 -3.73396,-3.73395 0,-0.70517 0.40461,-1.23695 0.75142,-1.8034 z m 56.21741,20.1148 c -0.65893,1.06354 -1.62999,1.89588 -2.97098,1.89588 -2.05772,0 -3.73395,-1.67623 -3.73395,-3.74552 0,-0.71673 0.41616,-1.27162 0.76297,-1.83807 z M 27.548035,298.62396 c 24.068405,5.47955 118.029975,24.12621 294.936225,27.33995 46.00973,0.83234 85.98501,3.61835 124.64243,6.31189 42.42606,2.95942 82.50539,5.74543 126.8042,5.74543 112.97816,0 230.78849,-19.43275 393.49877,-64.94538 3.46807,2.18488 8.61237,9.1557 11.94172,24.36897 -274.33589,74.36698 -394.06522,66.45978 -532.36029,57.24627 -40.16025,-2.67041 -81.67305,-5.44487 -128.8388,-6.27721 -174.8254,-3.09814 -271.191503,-21.06274 -297.063305,-26.60009 1.46815,-9.09791 3.502751,-17.39815 6.43905,-23.18983 z m 954.863685,46.55306 c -212.47708,57.75492 -328.33374,65.60432 -413.64826,65.60432 -0.0116,0 -0.0231,0 -0.0347,0 -44.24101,0 -85.01395,-2.40453 -128.17986,-4.9709 -38.26435,-2.2658 -77.81191,-4.60097 -122.38817,-5.39863 -176.39759,-3.12126 -275.330067,-22.0338 -300.704778,-27.55959 0.115602,-8.79734 0.473969,-21.18991 1.549071,-33.70964 29.131787,6.2194 124.758037,23.51351 298.855147,26.61165 46.73802,0.83234 88.04273,3.58368 127.9949,6.24253 45.07335,3.00566 88.15833,5.8726 135.1738,5.8726 98.49319,0 214.26892,-12.7047 400.86264,-63.15356 0.7283,8.5199 1.00574,18.55418 0.52021,30.46122 z"
     id="path2"
     inkscape:connector-curvature="0"
     style="stroke-width:11.56023312" /></svg>