<?xml version="1.0" encoding="UTF-8" standalone="no"?>
<svg
   xmlns:dc="http://purl.org/dc/elements/1.1/"
   xmlns:cc="http://creativecommons.org/ns#"
   xmlns:rdf="http://www.w3.org/1999/02/22-rdf-syntax-ns#"
   xmlns:svg="http://www.w3.org/2000/svg"
   xmlns="http://www.w3.org/2000/svg"
   xmlns:sodipodi="http://sodipodi.sourceforge.net/DTD/sodipodi-0.dtd"
   xmlns:inkscape="http://www.inkscape.org/namespaces/inkscape"
   xml:space="preserve"
   version="1.1"
   style="clip-rule:evenodd;fill-rule:evenodd;image-rendering:optimizeQuality;shape-rendering:geometricPrecision;text-rendering:geometricPrecision"
   viewBox="0 0 999.99999 474.91377"
   x="0px"
   y="0px"
   id="svg14"
   sodipodi:docname="shoe.svg"
   width="1000"
   height="474.91376"
   inkscape:version="0.92.2 (5c3e80d, 2017-08-06)"><metadata
     id="metadata18"><rdf:RDF><cc:Work
         rdf:about=""><dc:format>image/svg+xml</dc:format><dc:type
           rdf:resource="http://purl.org/dc/dcmitype/StillImage" /><dc:title /></cc:Work></rdf:RDF></metadata><sodipodi:namedview
     pagecolor="#ffffff"
     bordercolor="#666666"
     borderopacity="1"
     objecttolerance="10"
     gridtolerance="10"
     guidetolerance="10"
     inkscape:pageopacity="0"
     inkscape:pageshadow="2"
     inkscape:window-width="640"
     inkscape:window-height="480"
     id="namedview16"
     showgrid="false"
     fit-margin-top="0"
     fit-margin-left="0"
     fit-margin-right="0"
     fit-margin-bottom="0"
     inkscape:zoom="0.56696697"
     inkscape:cx="161.20651"
     inkscape:cy="35.007229"
     inkscape:current-layer="svg14" /><defs
     id="defs4"><style
       type="text/css"
       id="style2">
   
    .fil0 {fill:black}
   
  </style></defs><path
     style="fill:#000000;stroke-width:3.09879088"
     inkscape:connector-curvature="0"
     id="path6"
     d="m 975.20968,195.61283 c 0,0 -9.29636,-145.643169 -80.56856,-120.852849 C 823.36891,96.451521 848.15926,211.10678 748.99795,192.51404 646.73783,173.92129 609.55236,121.24185 612.65115,102.6491 618.84872,87.155151 649.83664,25.179331 590.95961,3.4877906 544.47773,-15.104949 535.18137,43.772071 454.61281,105.74789 v 86.76615 h -30.98793 v -65.07461 c -6.19757,6.19758 -15.49393,9.29637 -24.79031,15.49395 -3.09879,0 -6.19758,3.0988 -9.29636,6.19758 v 71.2722 h -30.98793 v -58.87703 c -9.29635,6.19758 -18.59274,9.29637 -30.98792,15.49395 v 61.97582 h -27.8891 v -52.67944 c -12.39516,3.09879 -21.69153,6.19758 -30.98791,9.29637 v 74.37098 h -30.98791 v -68.1734 c -52.67944,12.39517 -96.06252,15.49396 -130.14922,18.59275 -24.790322,3.09879 -52.67944,12.39516 -71.272188,24.79033 -12.395163,24.79032 -15.493954,71.27218 83.667358,120.85285 139.44559,71.27217 709.62313,21.69153 880.05661,0 -6.19757,-61.97583 -24.79032,-170.43351 -24.79032,-170.43351 z M 5.2881233,282.37898 C -41.193741,421.82455 231.49986,474.50401 324.46357,474.50401 383.3406,477.60279 922.53022,462.10883 922.53022,462.10883 956.61693,452.81247 1000,434.21972 1000,390.83666 823.36891,412.52819 256.29019,459.01004 110.64702,387.73787 33.177243,350.55238 8.3869141,313.36688 5.2881233,282.37898 Z"
     class="fil0" /></svg>