<?xml version="1.0" encoding="UTF-8" standalone="no"?>
<svg
   xmlns:dc="http://purl.org/dc/elements/1.1/"
   xmlns:cc="http://creativecommons.org/ns#"
   xmlns:rdf="http://www.w3.org/1999/02/22-rdf-syntax-ns#"
   xmlns:svg="http://www.w3.org/2000/svg"
   xmlns="http://www.w3.org/2000/svg"
   xmlns:sodipodi="http://sodipodi.sourceforge.net/DTD/sodipodi-0.dtd"
   xmlns:inkscape="http://www.inkscape.org/namespaces/inkscape"
   version="1.1"
   x="0px"
   y="0px"
   viewBox="0 0 660.6637 1000"
   xml:space="preserve"
   id="svg12"
   sodipodi:docname="sock.svg"
   width="660.6637"
   height="1000"
   inkscape:version="0.92.2 (5c3e80d, 2017-08-06)"><metadata
     id="metadata18"><rdf:RDF><cc:Work
         rdf:about=""><dc:format>image/svg+xml</dc:format><dc:type
           rdf:resource="http://purl.org/dc/dcmitype/StillImage" /><dc:title /></cc:Work></rdf:RDF></metadata><defs
     id="defs16" /><sodipodi:namedview
     pagecolor="#ffffff"
     bordercolor="#666666"
     borderopacity="1"
     objecttolerance="10"
     gridtolerance="10"
     guidetolerance="10"
     inkscape:pageopacity="0"
     inkscape:pageshadow="2"
     inkscape:window-width="640"
     inkscape:window-height="480"
     id="namedview14"
     showgrid="false"
     fit-margin-top="0"
     fit-margin-left="0"
     fit-margin-right="0"
     fit-margin-bottom="0"
     inkscape:zoom="0.472"
     inkscape:cx="-252.50845"
     inkscape:cy="229.16269"
     inkscape:current-layer="svg12" /><g
     id="g38"
     transform="scale(10)"><path
       style="fill:#ff0000"
       sodipodi:nodetypes="sccsssssscccccs"
       inkscape:connector-curvature="0"
       id="path2"
       d="m 47.7,100 c -4.3,0 -8.4,-1.4 -11.8,-4 L 3.8,74.7 C 1.4,72.9 0,70.1 0,67.2 V 1.1 C 0,0.5 0.5,0 1.1,0 H 33 c 0.6,0 1.1,0.5 1.1,1.1 v 50.7 c 0,2.3 1.1,4.5 3.1,5.9 l 22.2,13.7 c 0,0 0.1,0 0.1,0.1 6.6,5 8.4,12.6 4.6,19.4 -2.5,4.4 -6.9,7.6 -12.3,8.7 -1.4,0.3 -2.7,0.4 -4.1,0.4 z" /><path
       inkscape:connector-curvature="0"
       id="path4"
       d="M 33.1,11.7 H 1.7 C 1.1,11.7 0.6,11.2 0.6,10.6 0.6,10 1.1,9.5 1.7,9.5 h 31.4 c 0.6,0 1.1,0.5 1.1,1.1 0,0.6 -0.6,1.1 -1.1,1.1 z" /><path
       inkscape:connector-curvature="0"
       id="path6"
       d="M 14.4,81 C 13.8,81 13.3,80.5 13.3,79.9 13.3,63.6 1.4,58.5 1.2,58.4 0.7,58.2 0.4,57.6 0.6,57 0.8,56.5 1.4,56.2 2,56.4 c 0.1,0.1 13.4,5.8 13.4,23.4 0.1,0.7 -0.4,1.2 -1,1.2 z" /></g><g
     id="g33"
     transform="matrix(9.9959998,0,0,9.9959998,-1888.1383,-118.52962)"><path
       inkscape:connector-curvature="0"
       id="path2-0"
       d="m 158.67241,102.62235 c -4.3,0 -8.4,-1.4 -11.8,-4.000002 l -32.1,-21.300001 c -2.4,-1.8 -3.8,-4.6 -3.8,-7.5 V 3.7223476 c 0,-0.6 0.5,-1.1 1.1,-1.1 h 31.9 c 0.6,0 1.1,0.5 1.1,1.1 V 54.422348 c 0,2.3 1.1,4.5 3.1,5.9 l 22.2,13.699999 c 0,0 0.1,0 0.1,0.1 6.6,5 8.4,12.600001 4.6,19.400001 -2.5,4.4 -6.9,7.600002 -12.3,8.700002 -1.4,0.3 -2.7,0.4 -4.1,0.4 z m -45.5,-97.9000024 V 69.822347 c 0,2.3 1.1,4.4 2.9,5.8 l 32,21.300001 c 0,0 0,0 0.1,0 3.9,3.100002 9.1,4.200002 14.2,3.200002 4.7,-1.000002 8.7,-3.800002 10.9,-7.700002 3.2,-5.8 1.7,-12.400001 -4,-16.700001 l -22.3,-13.699999 c -2.5,-1.8 -4,-4.6 -4,-7.7 V 4.7223476 Z" /><path
       inkscape:connector-curvature="0"
       id="path4-3"
       d="m 144.07241,14.322348 h -31.4 c -0.6,0 -1.1,-0.5 -1.1,-1.1 0,-0.6 0.5,-1.1 1.1,-1.1 h 31.4 c 0.6,0 1.1,0.5 1.1,1.1 0,0.6 -0.6,1.1 -1.1,1.1 z" /><path
       inkscape:connector-curvature="0"
       id="path6-4"
       d="m 125.37241,83.622347 c -0.6,0 -1.1,-0.5 -1.1,-1.1 0,-16.3 -11.9,-21.399999 -12.1,-21.499999 -0.5,-0.2 -0.8,-0.8 -0.6,-1.4 0.2,-0.5 0.8,-0.8 1.4,-0.6 0.1,0.1 13.4,5.799999 13.4,23.399999 0.1,0.7 -0.4,1.2 -1,1.2 z" /></g></svg>