<?xml version="1.0" encoding="UTF-8" standalone="no"?>
<svg
   xmlns:dc="http://purl.org/dc/elements/1.1/"
   xmlns:cc="http://creativecommons.org/ns#"
   xmlns:rdf="http://www.w3.org/1999/02/22-rdf-syntax-ns#"
   xmlns:svg="http://www.w3.org/2000/svg"
   xmlns="http://www.w3.org/2000/svg"
   xmlns:sodipodi="http://sodipodi.sourceforge.net/DTD/sodipodi-0.dtd"
   xmlns:inkscape="http://www.inkscape.org/namespaces/inkscape"
   version="1.1"
   x="0px"
   y="0px"
   viewBox="0 0 741.5813 1000"
   enable-background="new 0 0 100 100"
   xml:space="preserve"
   id="svg36"
   sodipodi:docname="sock-o.svg"
   width="741.5813"
   height="1000"
   inkscape:version="0.92.2 (5c3e80d, 2017-08-06)"><metadata
     id="metadata42"><rdf:RDF><cc:Work
         rdf:about=""><dc:format>image/svg+xml</dc:format><dc:type
           rdf:resource="http://purl.org/dc/dcmitype/StillImage" /></cc:Work></rdf:RDF></metadata><defs
     id="defs40" /><sodipodi:namedview
     pagecolor="#ffffff"
     bordercolor="#666666"
     borderopacity="1"
     objecttolerance="10"
     gridtolerance="10"
     guidetolerance="10"
     inkscape:pageopacity="0"
     inkscape:pageshadow="2"
     inkscape:window-width="640"
     inkscape:window-height="480"
     id="namedview38"
     showgrid="false"
     inkscape:zoom="1.888"
     inkscape:cx="34.9"
     inkscape:cy="34.500016"
     inkscape:current-layer="svg36" /><g
     id="g30"
     transform="matrix(10.638298,0,0,10.638298,-160.6383,-31.914894)"><path
       d="M 77.1,70 C 61,65.2 53.2,57.5 53.2,46.6 V 23.2 c 1.2,-0.6 2,-1.8 2,-3.2 V 6.6 C 55.2,4.6 53.6,3 51.6,3 H 18.7 c -2,0 -3.6,1.6 -3.6,3.6 V 20 c 0,1.4 0.8,2.6 2,3.2 V 62 c 0,10 12.2,17.6 27.6,27.2 2.4,1.5 4.9,3.1 7.5,4.7 3.2,2.1 6.7,3.1 10.5,3.1 0,0 0,0 0,0 11,0 20.9,-8.9 22,-16.6 0.7,-5 -2,-8.8 -7.6,-10.4 z M 51.2,19.6 H 47.9 V 7 h 3.3 z m -26.7,0 V 7 h 3.9 V 19.6 Z M 30.3,7 h 3.9 v 12.6 h -3.9 z m 5.9,0 H 40 V 19.6 H 36.1 V 7 Z M 42,7 h 3.9 V 19.6 H 42 Z M 19.2,7 h 3.3 V 19.6 H 19.2 Z M 80.8,79.8 C 79.9,85.7 71.4,93 62.7,93 c 0,0 0,0 0,0 -3,0 -5.8,-0.8 -8.4,-2.5 -2.5,-1.6 -5,-3.2 -7.5,-4.7 -6.3,-3.9 -12.1,-7.6 -16.7,-11.1 0.3,-0.3 0.3,-0.7 0.1,-1 -0.2,-0.3 -0.6,-0.3 -0.9,-0.2 -0.2,-0.1 -0.4,0 -0.6,0.1 C 24,69.7 21.1,65.9 21.1,62.1 V 51.4 c 0.1,-0.1 0.2,-0.2 0.3,-0.3 0.3,-0.1 0.5,-0.4 0.5,-0.7 0,-0.4 -0.3,-0.8 -0.7,-0.8 v 0 -26 h 28 v 23 c 0,11.9 7.9,20.7 23.5,26.1 -0.1,0 -0.1,0 -0.2,0.1 -0.5,0.2 -0.7,0.7 -0.6,1.2 0.1,0.4 0.5,0.6 0.9,0.6 0.1,0 0.2,0 0.3,-0.1 0.3,-0.1 0.6,-0.2 0.9,-0.3 0.4,-0.1 0.6,-0.5 0.6,-0.8 0.5,0.1 0.9,0.3 1.4,0.4 3.6,1.1 5.2,3.1 4.8,6 z"
       id="path2"
       inkscape:connector-curvature="0" /><path
       d="m 32.3,58.3 c 0.1,0.3 0.4,0.4 0.7,0.4 0.1,0 0.2,0 0.3,-0.1 0.4,-0.2 0.5,-0.6 0.3,-1 -0.1,-0.2 -0.2,-0.5 -0.4,-0.7 -0.2,-0.4 -0.7,-0.5 -1,-0.3 -0.4,0.2 -0.5,0.7 -0.3,1 0.2,0.3 0.3,0.5 0.4,0.7 z"
       id="path4"
       inkscape:connector-curvature="0" /><path
       d="m 33.2,61 c 0.1,0.2 0.1,0.5 0.1,0.7 0.1,0.4 0.4,0.6 0.7,0.6 0,0 0.1,0 0.1,0 0.4,-0.1 0.7,-0.5 0.6,-0.9 0,-0.3 -0.1,-0.5 -0.2,-0.8 -0.1,-0.4 -0.5,-0.7 -0.9,-0.6 -0.2,0.1 -0.5,0.6 -0.4,1 z"
       id="path6"
       inkscape:connector-curvature="0" /><path
       d="m 28.5,51.9 c -0.2,-0.1 -0.4,-0.3 -0.7,-0.4 -0.4,-0.2 -0.8,-0.1 -1,0.3 -0.2,0.4 -0.1,0.8 0.3,1 0.2,0.1 0.4,0.2 0.6,0.4 0.1,0.1 0.3,0.1 0.4,0.1 0.2,0 0.5,-0.1 0.6,-0.3 0.3,-0.4 0.2,-0.9 -0.2,-1.1 z"
       id="path8"
       inkscape:connector-curvature="0" /><path
       d="m 25,50.3 c -0.2,-0.1 -0.5,-0.1 -0.8,-0.2 -0.4,-0.1 -0.8,0.1 -0.9,0.5 -0.1,0.4 0.1,0.8 0.5,0.9 0.2,0.1 0.4,0.1 0.7,0.2 0.1,0 0.2,0 0.2,0 0.3,0 0.6,-0.2 0.7,-0.5 0.2,-0.4 0,-0.8 -0.4,-0.9 z"
       id="path10"
       inkscape:connector-curvature="0" /><path
       d="m 33.9,67.4 c -0.4,-0.1 -0.8,0.1 -0.9,0.5 -0.1,0.2 -0.2,0.4 -0.2,0.7 -0.2,0.4 0,0.8 0.4,1 0.1,0 0.2,0.1 0.3,0.1 0.3,0 0.6,-0.2 0.7,-0.5 0.1,-0.2 0.2,-0.5 0.3,-0.7 0,-0.6 -0.2,-1 -0.6,-1.1 z"
       id="path12"
       inkscape:connector-curvature="0" /><path
       d="m 31.4,55.5 c 0.3,-0.3 0.3,-0.8 0.1,-1.1 -0.2,-0.2 -0.3,-0.4 -0.5,-0.6 -0.3,-0.3 -0.8,-0.3 -1.1,0 -0.3,0.3 -0.3,0.8 0,1.1 0.2,0.2 0.3,0.3 0.5,0.5 0.1,0.2 0.4,0.3 0.6,0.3 0.1,0 0.3,-0.1 0.4,-0.2 z"
       id="path14"
       inkscape:connector-curvature="0" /><path
       d="m 34.3,63.7 c -0.4,0 -0.8,0.3 -0.8,0.7 0,0.2 0,0.5 0,0.7 0,0.4 0.3,0.8 0.7,0.8 0,0 0,0 0.1,0 0.4,0 0.7,-0.3 0.7,-0.7 0,-0.3 0,-0.5 0.1,-0.8 -0.1,-0.3 -0.4,-0.7 -0.8,-0.7 z"
       id="path16"
       inkscape:connector-curvature="0" /><path
       d="m 31.4,71 c -0.1,0.2 -0.3,0.4 -0.4,0.6 -0.2,0.3 -0.2,0.8 0.2,1.1 0.1,0.1 0.3,0.1 0.5,0.1 0.2,0 0.5,-0.1 0.6,-0.3 0.2,-0.2 0.3,-0.4 0.5,-0.6 0.2,-0.3 0.1,-0.8 -0.2,-1 -0.5,-0.4 -1,-0.3 -1.2,0.1 z"
       id="path18"
       inkscape:connector-curvature="0" /><path
       d="m 57.5,83.1 c -0.2,0.2 -0.4,0.5 -0.6,0.8 -0.3,0.4 -0.2,1 0.2,1.3 0.2,0.1 0.4,0.2 0.6,0.2 0.3,0 0.5,-0.1 0.7,-0.4 0.2,-0.2 0.4,-0.5 0.6,-0.7 0.3,-0.4 0.3,-1 -0.1,-1.3 -0.5,-0.4 -1.1,-0.3 -1.4,0.1 z"
       id="path20"
       inkscape:connector-curvature="0" /><path
       d="m 68.9,74.3 c -0.3,0.1 -0.6,0.3 -0.9,0.4 -0.4,0.2 -0.6,0.8 -0.4,1.2 0.2,0.3 0.5,0.5 0.8,0.5 0.1,0 0.3,0 0.4,-0.1 0.3,-0.1 0.6,-0.3 0.8,-0.4 0.5,-0.2 0.6,-0.8 0.4,-1.2 -0.1,-0.5 -0.6,-0.6 -1.1,-0.4 z"
       id="path22"
       inkscape:connector-curvature="0" /><path
       d="m 64.7,76.6 c -0.3,0.2 -0.5,0.4 -0.8,0.5 -0.4,0.3 -0.5,0.8 -0.2,1.3 0.2,0.3 0.5,0.4 0.7,0.4 0.2,0 0.4,-0.1 0.5,-0.2 0.3,-0.2 0.5,-0.4 0.8,-0.5 0.4,-0.3 0.5,-0.8 0.3,-1.3 -0.3,-0.3 -0.9,-0.4 -1.3,-0.2 z"
       id="path24"
       inkscape:connector-curvature="0" /><path
       d="m 55.9,86.7 c -0.4,-0.3 -1,-0.1 -1.2,0.3 -0.2,0.3 -0.3,0.6 -0.5,0.8 -0.2,0.4 -0.1,1 0.4,1.2 0.1,0.1 0.3,0.1 0.4,0.1 0.3,0 0.6,-0.2 0.8,-0.5 0.1,-0.3 0.3,-0.5 0.5,-0.8 0.2,-0.2 0.1,-0.8 -0.4,-1.1 z"
       id="path26"
       inkscape:connector-curvature="0" /><path
       d="m 60.8,79.6 c -0.2,0.2 -0.5,0.4 -0.7,0.7 -0.4,0.3 -0.4,0.9 0,1.3 0.2,0.2 0.4,0.3 0.7,0.3 0.2,0 0.4,-0.1 0.6,-0.2 0.2,-0.2 0.5,-0.4 0.7,-0.6 0.4,-0.3 0.4,-0.9 0.1,-1.3 -0.4,-0.5 -1,-0.5 -1.4,-0.2 z"
       id="path28"
       inkscape:connector-curvature="0" /></g></svg>