<?xml version="1.0" encoding="UTF-8" standalone="no"?>
<svg
   xmlns:dc="http://purl.org/dc/elements/1.1/"
   xmlns:cc="http://creativecommons.org/ns#"
   xmlns:rdf="http://www.w3.org/1999/02/22-rdf-syntax-ns#"
   xmlns:svg="http://www.w3.org/2000/svg"
   xmlns="http://www.w3.org/2000/svg"
   xmlns:sodipodi="http://sodipodi.sourceforge.net/DTD/sodipodi-0.dtd"
   xmlns:inkscape="http://www.inkscape.org/namespaces/inkscape"
   version="1.1"
   x="0px"
   y="0px"
   viewBox="0 0 1000 853.49609"
   enable-background="new 0 0 100 100"
   xml:space="preserve"
   id="svg16"
   sodipodi:docname="train-o.svg"
   width="1000"
   height="853.49609"
   inkscape:version="0.92.2 (5c3e80d, 2017-08-06)"><metadata
     id="metadata22"><rdf:RDF><cc:Work
         rdf:about=""><dc:format>image/svg+xml</dc:format><dc:type
           rdf:resource="http://purl.org/dc/dcmitype/StillImage" /></cc:Work></rdf:RDF></metadata><defs
     id="defs20" /><sodipodi:namedview
     pagecolor="#ffffff"
     bordercolor="#666666"
     borderopacity="1"
     objecttolerance="10"
     gridtolerance="10"
     guidetolerance="10"
     inkscape:pageopacity="0"
     inkscape:pageshadow="2"
     inkscape:window-width="640"
     inkscape:window-height="480"
     id="namedview18"
     showgrid="false"
     inkscape:zoom="1.888"
     inkscape:cx="45.7"
     inkscape:cy="25.59999"
     inkscape:current-layer="svg16" /><g
     id="g10"
     transform="matrix(11.098779,0,0,11.098779,-47.72475,-124.30632)"><path
       d="m 39.4,38.3 c 0,-0.3 0,-18.9 0,-18.9 l 1.5,-6.6 c 0,-0.1 0,-0.2 0,-0.3 0,-0.3 -0.1,-0.6 -0.3,-0.8 -0.2,-0.3 -0.6,-0.5 -1,-0.5 H 22.9 c -0.4,0 -0.8,0.2 -1,0.5 -0.2,0.2 -0.3,0.5 -0.3,0.8 0,0.1 0,0.2 0,0.3 l 1.5,6.6 c 0,0 0,18.5 0,18.8 -0.3,0 -8.7,0 -8.7,0 -0.6,0 -1,0.4 -1.2,0.9 l -4.9,15.6 4.4,13.9 c -2.5,0 -4,0 -4,0 -0.6,0 -1.1,0.4 -1.2,0.9 L 4.4,79.7 c 0,0.1 -0.1,0.3 -0.1,0.4 0,0.3 0.1,0.5 0.2,0.8 0.2,0.3 0.6,0.5 1,0.5 h 9.2 c 0.6,1.1 1.3,2 2.2,2.9 2.5,2.5 5.8,3.8 9.3,3.8 3.5,0 6.8,-1.4 9.3,-3.8 0.9,-0.9 1.6,-1.9 2.2,-2.9 H 42 c 0.6,1.1 1.3,2 2.2,2.9 2.5,2.5 5.8,3.8 9.3,3.8 3.5,0 6.8,-1.4 9.3,-3.8 0.9,-0.9 1.6,-1.9 2.2,-2.9 h 4.7 c 0.6,1.1 1.3,2 2.2,2.9 2.5,2.5 5.8,3.8 9.3,3.8 3.5,0 6.8,-1.4 9.3,-3.8 2.5,-2.5 3.8,-5.8 3.8,-9.3 0,-2.9 -0.9,-5.5 -2.5,-7.7 0,-15.5 0,-39.8 0,-40 0.2,0 1.3,0 1.3,0 0.7,0 1.3,-0.6 1.3,-1.3 V 19.3 C 94.4,18.6 93.8,18 93.1,18 H 59.2 c -0.7,0 -1.3,0.6 -1.3,1.3 V 26 c 0,0.7 0.6,1.3 1.3,1.3 0,0 1.1,0 1.3,0 0,0.1 0,4.8 0,10.9 -1.9,0.1 -20.8,0.1 -21.1,0.1 z m 15,-15.4 m 28.2,17.9 c 0,0 0,-13.2 0,-13.5 0.3,0 6.3,0 6.5,0 0,0.2 0,27 0,37.3 -2.2,-1.7 -5,-2.8 -8,-2.8 -4.9,0 -9.2,2.7 -11.5,6.8 -1.9,0 -3.6,0 -4.7,0 -0.5,-0.9 -1.1,-1.8 -1.9,-2.5 0,-8.9 0,-38.5 0,-38.8 0.3,0 6.3,0 6.5,0 0,0.3 0,13.5 0,13.5 z M 72.2,38.3 c 0,-0.3 0,-10.6 0,-10.9 0.3,0 7.6,0 7.9,0 0,0.3 0,10.6 0,10.9 -0.4,0 -7.6,0 -7.9,0 z M 38.1,13.8 c -0.1,0.3 -0.9,4 -1,4.2 -0.2,0 -11.4,0 -11.6,0 0,-0.2 -0.9,-3.8 -1,-4.2 0.4,0 13.2,0 13.6,0 z m -1.2,6.7 c 0,0.3 0,17.4 0,17.7 -0.3,0 -10.8,0 -11.1,0 0,-0.3 0,-17.4 0,-17.7 0.3,0 10.8,0 11.1,0 z M 15.8,40.8 c 0.3,0 44.4,0 44.7,0 0,0.2 0,15.3 0,23.2 -2,-1.3 -4.4,-2.1 -7,-2.1 -4.9,0 -9.2,2.7 -11.5,6.8 -1.4,0 -2.8,0 -4.2,0 -2.2,-4 -6.5,-6.8 -11.5,-6.8 -4.3,0 -8.2,2.1 -10.5,5.4 0,-5.6 0,-26.2 0,-26.5 z M 11,54.7 13.2,47.8 c 0,1.6 0,12.2 0,13.8 C 12.8,60.5 11,54.8 11,54.7 Z M 7.4,78.8 c 0.1,-0.4 2.3,-7.4 2.4,-7.6 0,0 1.5,0 4.1,0 -0.4,1.2 -0.6,2.5 -0.6,3.8 0,1.3 0.2,2.6 0.6,3.8 -4.1,0 -6.5,0 -6.5,0 z m 26.4,3.7 c -2,2 -4.6,3.1 -7.5,3.1 -2.8,0 -5.5,-1.1 -7.5,-3.1 -0.3,-0.3 -0.7,-0.7 -0.9,-1.1 -0.6,-0.8 -1.1,-1.7 -1.4,-2.6 -0.5,-1.2 -0.7,-2.5 -0.7,-3.8 0,-1.3 0.3,-2.6 0.7,-3.8 0.4,-0.9 0.8,-1.8 1.4,-2.6 1.9,-2.5 5,-4.2 8.4,-4.2 2.8,0 5.5,1.1 7.4,3.1 0.3,0.3 0.7,0.7 0.9,1.1 0.6,0.8 1.1,1.7 1.4,2.6 0.5,1.2 0.7,2.5 0.7,3.8 0,1.3 -0.2,2.6 -0.7,3.8 -0.4,0.9 -0.8,1.8 -1.4,2.6 -0.2,0.4 -0.5,0.7 -0.8,1.1 z m 5.1,-3.7 c 0.4,-1.2 0.6,-2.5 0.6,-3.8 0,-1.3 -0.2,-2.6 -0.6,-3.8 0.7,0 1.4,0 2,0 -0.4,1.2 -0.6,2.5 -0.6,3.8 0,1.3 0.2,2.6 0.6,3.8 -0.7,0 -1.4,0 -2,0 z m 22,3.7 c -2,2 -4.6,3.1 -7.5,3.1 -2.8,0 -5.5,-1.1 -7.5,-3.1 -0.3,-0.3 -0.7,-0.7 -0.9,-1.1 -0.6,-0.8 -1.1,-1.7 -1.4,-2.6 -0.5,-1.2 -0.7,-2.5 -0.7,-3.8 0,-1.3 0.3,-2.6 0.7,-3.8 0.4,-0.9 0.8,-1.8 1.4,-2.6 1.9,-2.5 5,-4.2 8.4,-4.2 2.6,0 5.1,1 7,2.7 0.1,0.1 0.3,0.2 0.4,0.4 1.1,1.1 1.9,2.3 2.4,3.7 0.5,1.2 0.7,2.5 0.7,3.8 0,1.3 -0.2,2.6 -0.7,3.8 -0.4,0.9 -0.8,1.8 -1.4,2.6 -0.2,0.4 -0.5,0.7 -0.9,1.1 z M 66,78.8 c 0.4,-1.2 0.6,-2.5 0.6,-3.8 0,-1.3 -0.2,-2.6 -0.6,-3.8 0.9,0 1.7,0 2.6,0 -0.4,1.2 -0.6,2.5 -0.6,3.8 0,1.3 0.2,2.6 0.6,3.8 -0.9,0 -1.7,0 -2.6,0 z m 22.6,3.7 c -2,2 -4.6,3.1 -7.5,3.1 -2.8,0 -5.5,-1.1 -7.5,-3.1 -0.3,-0.3 -0.7,-0.7 -0.9,-1.1 -0.6,-0.8 -1.1,-1.7 -1.4,-2.6 -0.5,-1.2 -0.7,-2.5 -0.7,-3.8 0,-1.3 0.3,-2.6 0.7,-3.8 0.4,-0.9 0.8,-1.8 1.4,-2.6 1.9,-2.5 5,-4.2 8.4,-4.2 2.8,0 5.5,1.1 7.4,3.1 0.2,0.2 0.4,0.4 0.6,0.6 1.6,1.9 2.5,4.3 2.5,6.8 0,2.3 -0.8,4.5 -2.1,6.4 -0.3,0.5 -0.6,0.8 -0.9,1.2 z M 60.5,24.8 c 0,-0.3 0,-3.9 0,-4.2 0.3,0 31,0 31.3,0 0,0.3 0,3.9 0,4.2 -0.4,0 -31,0 -31.3,0 z"
       id="path2"
       inkscape:connector-curvature="0" /><path
       d="m 29.6,71.2 c -0.9,-0.8 -2,-1.2 -3.2,-1.2 -1.2,0 -2.4,0.5 -3.2,1.2 -1.1,0.9 -1.8,2.3 -1.8,3.8 0,1.3 0.5,2.6 1.5,3.5 0.1,0.1 0.2,0.2 0.3,0.2 0.9,0.8 2,1.2 3.2,1.2 1.2,0 2.3,-0.4 3.2,-1.2 0.1,-0.1 0.2,-0.2 0.3,-0.2 0.9,-0.9 1.5,-2.2 1.5,-3.5 0,-1.3 -0.5,-2.6 -1.5,-3.5 -0.1,-0.1 -0.2,-0.2 -0.3,-0.3 z M 28.2,75 c 0,0.5 -0.2,1 -0.5,1.3 -0.4,0.4 -0.8,0.5 -1.3,0.5 -0.5,0 -1,-0.2 -1.3,-0.5 -0.4,-0.4 -0.5,-0.8 -0.5,-1.3 0,-1 0.8,-1.9 1.9,-1.9 0.5,0 1,0.2 1.3,0.5 0.2,0.5 0.4,0.9 0.4,1.4 z"
       id="path4"
       inkscape:connector-curvature="0" /><path
       d="m 56.7,71.2 c -0.9,-0.8 -2,-1.2 -3.2,-1.2 -1.2,0 -2.4,0.5 -3.2,1.2 -1.1,0.9 -1.8,2.3 -1.8,3.8 0,1.3 0.5,2.6 1.5,3.5 0.1,0.1 0.2,0.2 0.3,0.2 0.9,0.8 2,1.2 3.2,1.2 1.2,0 2.3,-0.4 3.2,-1.2 0.1,-0.1 0.2,-0.2 0.3,-0.2 0.9,-0.9 1.5,-2.2 1.5,-3.5 0,-1.3 -0.5,-2.6 -1.5,-3.5 -0.1,-0.1 -0.2,-0.2 -0.3,-0.3 z M 55.3,75 c 0,0.5 -0.2,1 -0.5,1.3 -0.4,0.4 -0.8,0.5 -1.3,0.5 -0.5,0 -1,-0.2 -1.3,-0.5 -0.4,-0.4 -0.5,-0.8 -0.5,-1.3 0,-1 0.8,-1.9 1.9,-1.9 0.5,0 1,0.2 1.3,0.5 0.2,0.5 0.4,0.9 0.4,1.4 z"
       id="path6"
       inkscape:connector-curvature="0" /><path
       d="M 84.4,71.2 C 83.5,70.4 82.4,70 81.2,70 80,70 78.8,70.5 78,71.2 c -1.1,0.9 -1.8,2.3 -1.8,3.8 0,1.3 0.5,2.6 1.5,3.5 0.1,0.1 0.2,0.2 0.3,0.2 0.9,0.8 2,1.2 3.2,1.2 1.2,0 2.3,-0.4 3.2,-1.2 0.1,-0.1 0.2,-0.2 0.3,-0.2 0.9,-0.9 1.5,-2.2 1.5,-3.5 0,-1.3 -0.5,-2.6 -1.5,-3.5 -0.1,-0.1 -0.2,-0.2 -0.3,-0.3 z M 83,75 c 0,0.5 -0.2,1 -0.5,1.3 -0.4,0.4 -0.8,0.5 -1.3,0.5 -0.5,0 -1,-0.2 -1.3,-0.5 -0.4,-0.4 -0.5,-0.8 -0.5,-1.3 0,-1 0.8,-1.9 1.9,-1.9 0.5,0 1,0.2 1.3,0.5 0.2,0.5 0.4,0.9 0.4,1.4 z"
       id="path8"
       inkscape:connector-curvature="0" /></g></svg>