<?xml version="1.0" encoding="UTF-8" standalone="no"?>
<svg
   xmlns:dc="http://purl.org/dc/elements/1.1/"
   xmlns:cc="http://creativecommons.org/ns#"
   xmlns:rdf="http://www.w3.org/1999/02/22-rdf-syntax-ns#"
   xmlns:svg="http://www.w3.org/2000/svg"
   xmlns="http://www.w3.org/2000/svg"
   xmlns:sodipodi="http://sodipodi.sourceforge.net/DTD/sodipodi-0.dtd"
   xmlns:inkscape="http://www.inkscape.org/namespaces/inkscape"
   version="1.1"
   x="0px"
   y="0px"
   viewBox="0 0 1000 737.05426"
   xml:space="preserve"
   id="svg8"
   sodipodi:docname="truck-o.svg"
   inkscape:version="0.92.2 (5c3e80d, 2017-08-06)"
   width="1000"
   height="737.05426"><metadata
     id="metadata14"><rdf:RDF><cc:Work
         rdf:about=""><dc:format>image/svg+xml</dc:format><dc:type
           rdf:resource="http://purl.org/dc/dcmitype/StillImage" /></cc:Work></rdf:RDF></metadata><defs
     id="defs12" /><sodipodi:namedview
     pagecolor="#ffffff"
     bordercolor="#666666"
     borderopacity="1"
     objecttolerance="10"
     gridtolerance="10"
     guidetolerance="10"
     inkscape:pageopacity="0"
     inkscape:pageshadow="2"
     inkscape:window-width="640"
     inkscape:window-height="480"
     id="namedview10"
     showgrid="false"
     inkscape:zoom="1.888"
     inkscape:cx="45.266"
     inkscape:cy="20.863"
     inkscape:current-layer="svg8" /><path
     style="clip-rule:evenodd;fill-rule:evenodd;stroke-width:11.04581833"
     d="m 828.07184,540.82533 c -24.64322,0 -46.96682,10.02961 -63.1158,26.16754 l -0.41974,0.37556 c -15.89494,16.13794 -25.73676,38.29585 -25.73676,62.7292 0,24.68741 10.00751,46.97787 26.14545,63.12685 16.13794,16.18213 38.47259,26.16755 63.11581,26.16755 24.6874,0 47.011,-10.02961 63.18208,-26.16755 16.11584,-16.11585 26.11231,-38.4284 26.11231,-63.12685 0,-24.64322 -9.99647,-47.011 -26.11231,-63.1158 -16.16004,-16.12689 -38.47259,-26.1565 -63.17104,-26.1565 z M 538.68245,135.94087 c 0,-4.86016 3.92127,-8.81456 8.81457,-8.81456 4.86016,0 8.81456,3.9544 8.81456,8.81456 v 263.50904 c 0,4.90434 -3.9544,8.85874 -8.81456,8.85874 -4.90435,0 -8.81457,-3.9544 -8.81457,-8.85874 z m -94.75102,0 c 0,-4.86016 3.92126,-8.81456 8.81456,-8.81456 4.86016,0 8.81456,3.9544 8.81456,8.81456 v 263.50904 c 0,4.90434 -3.9544,8.85874 -8.81456,8.85874 -4.90434,0 -8.81456,-3.9544 -8.81456,-8.85874 z m -77.11086,263.50904 c 0,4.90434 -3.9544,8.85874 -8.81456,8.85874 -4.88225,0 -8.81456,-3.9544 -8.81456,-8.85874 V 162.09737 c 0,-4.90434 3.93231,-8.85875 8.81456,-8.85875 4.86016,0 8.81456,3.95441 8.81456,8.85875 z M 254.45146,188.15445 c 0,-4.86016 3.92127,-8.81456 8.81457,-8.81456 4.88225,0 8.8477,3.9544 8.8477,8.81456 v 211.29546 c 0,4.90434 -3.95441,8.85874 -8.8477,8.85874 -4.90435,0 -8.81457,-3.9544 -8.81457,-8.85874 z m -77.07771,211.29546 c 0,4.90434 -3.98754,8.85874 -8.85875,8.85874 -4.90434,0 -8.85875,-3.9544 -8.85875,-8.85874 v -185.5587 c 0,-4.90434 3.95441,-8.85875 8.85875,-8.85875 4.86016,0 8.85875,3.95441 8.85875,8.85875 z m -94.751031,0 c 0,4.90434 -3.98754,8.85874 -8.858746,8.85874 -4.86016,0 -8.858746,-3.9544 -8.858746,-8.85874 V 241.04183 c 0,-4.86016 3.98754,-8.81456 8.858746,-8.81456 4.86016,0 8.858746,3.9544 8.858746,8.81456 z m 495.073561,28.85167 c 9.72032,0 18.54593,-3.96544 24.91937,-10.38307 6.39553,-6.39552 10.34993,-15.21009 10.34993,-24.91936 V 73.55409 c 0,-2.3638 0.92785,-4.50669 2.46322,-6.10834 l 26.98493,-32.2096 V 19.81619 L 521.9149,46.34824 454.80051,104.91317 c -1.00517,0.90576 -2.22021,1.53537 -3.4242,1.8336 L 43.60889,219.20425 c -7.809394,2.10975 -14.337472,6.59435 -18.844166,12.57014 -4.51774,5.89847 -7.091415,13.39858 -7.091415,21.48412 v 139.74064 c 0,9.70927 3.954403,18.53488 10.349931,24.96355 6.395529,6.38448 15.232183,10.34993 24.963549,10.34993 h 95.203911 378.48495 51.02063 z m 37.43428,2.1208 c -9.63195,9.60986 -22.87589,15.54147 -37.42323,15.54147 h -42.18398 v 20.56731 H 644.42407 V 178.95329 c 0,-4.86016 3.9544,-8.81457 8.81456,-8.81457 h 242.22375 c 11.97366,0 23.1189,3.89918 32.0881,10.65922 v 0 c 8.95816,6.80422 15.68506,16.45827 18.94358,28.02324 l 51.48454,184.06751 0.1326,0.41974 c 0.6296,2.28649 1.0825,4.4846 1.3586,6.70481 0.3424,2.47427 0.5302,4.80493 0.5302,7.19083 v 222.91565 c 0,4.86016 -3.9654,8.81457 -8.85875,8.81457 h -29.69116 c -4.90434,0 -8.81456,-3.95441 -8.81456,-8.81457 0,-34.36354 -13.95087,-65.51274 -36.48433,-88.03516 -22.57766,-22.53347 -53.70477,-36.48434 -88.07936,-36.48434 -34.40772,0 -65.51274,13.95087 -88.03517,36.48434 -22.53347,22.52242 -36.51747,53.67162 -36.51747,88.03516 0,4.86016 -3.93231,8.81457 -8.79247,8.81457 v 0 h -32.62935 v 17.22043 c 0,4.86016 -3.9544,8.81456 -8.85875,8.81456 H 444.87032 c -4.86016,0 -8.81456,-3.9544 -8.81456,-8.81456 v -18.19246 h -20.733 c -4.86016,0 -8.81456,-3.95441 -8.81456,-8.81457 l 0.0331,-0.66275 c -0.41974,-33.87752 -14.43688,-64.52967 -36.82675,-86.7649 -22.50034,-22.31255 -53.50595,-36.13087 -87.73694,-36.13087 -34.23099,0 -65.19241,13.81832 -87.72588,36.13087 -22.52243,22.36778 -36.56166,53.29608 -36.79362,87.46079 -0.0331,4.82702 -3.96545,8.74829 -8.79247,8.74829 v 0.0331 h -4.71657 c -14.59152,0 -27.84651,-5.94265 -37.42323,-15.55251 -9.60983,-9.57673 -15.552483,-22.80962 -15.552483,-37.42324 V 475.37886 c 0,-4.8933 3.954403,-8.8477 8.814563,-8.8477 h 39.58821 V 445.96385 H 52.975743 c -14.569434,0 -27.835461,-5.93161 -37.423231,-15.54147 C 5.94265,420.83461 0,407.60172 0,392.99915 V 253.24746 c 0,-12.03994 3.9323112,-23.18517 10.769673,-32.17647 6.804224,-8.9692 16.524543,-15.66297 28.15579,-18.88835 L 444.73777,90.3106 511.53183,31.98868 c 1.17086,-1.17086 2.67309,-2.04348 4.44042,-2.43008 L 649.28423,0.18777 v 0.0221 C 649.91384,0.11047 650.53241,0 651.19516,0 c 4.86016,0 8.78142,3.96545 8.78142,8.79247 l 0.0331,29.08364 c 0.13255,2.15393 -0.5302,4.40728 -2.04348,6.20775 l -27.32735,32.60725 v 316.28596 c 0.0111,14.63571 -5.9316,27.85755 -15.50833,37.44532 z m 98.51765,-208.41249 c -4.84911,0 -8.8477,3.92126 -8.8477,8.81456 v 166.95754 c 0,4.86016 3.98754,8.81456 8.8477,8.81456 h 222.99298 v -0.0331 c 0.80634,0 1.60164,-0.0994 2.39694,-0.30928 4.69447,-1.3255 7.4007,-6.18566 6.10834,-10.88013 L 902.92935,244.56549 h -0.0331 c -1.87779,-6.73795 -5.78801,-12.39341 -11.01268,-16.34781 l -0.0221,0.0331 c -5.24676,-3.98754 -11.73066,-6.24088 -18.67848,-6.24088 H 713.64821 Z m 159.53475,17.64017 H 722.46278 V 388.93429 H 925.05412 L 885.96297,249.33724 v 0 -0.0331 c -0.79529,-2.87191 -2.49635,-5.31304 -4.72761,-6.98095 l 0.0331,-0.0221 -0.0331,-0.0331 c -2.16498,-1.65688 -4.97061,-2.61786 -8.0524,-2.61786 z M 517.85004,466.53116 V 445.96385 H 156.99421 v 20.56731 h 287.87611 z m -81.79428,17.66226 H 148.17965 108.63562 v 100.78205 c 0,9.7645 3.9544,18.54593 10.34993,24.96355 5.58919,5.55604 12.97884,9.31162 21.20797,10.17319 2.49636,-35.47916 17.93841,-67.34635 41.65378,-90.88499 25.73676,-25.52688 61.10547,-41.27822 100.1193,-41.27822 39.05801,0 74.43777,15.75134 100.14138,41.31136 23.7706,23.56073 39.25684,55.50524 41.68692,91.02859 h 12.26086 z m 208.36831,0 H 526.6646 453.71802 v 144.95427 18.15933 H 644.42407 V 630.10868 Z M 895.46238,187.81203 c 8.12972,0 15.55251,2.57368 21.46202,7.0141 l 0.0331,0.0221 -0.0331,0.0331 c 5.94265,4.4846 10.42725,10.93536 12.57014,18.71161 l 51.56188,184.06751 0.0663,0.2872 c 0.43078,1.53536 0.7732,2.99341 0.93889,4.37414 0.17673,1.45805 0.28719,3.05969 0.28719,4.86016 v 214.10109 h -12.34922 c -2.17603,-35.75531 -17.56285,-67.89864 -41.37764,-91.72447 -25.73675,-25.68153 -61.28219,-41.65378 -100.55008,-41.65378 -39.26788,0 -74.76914,15.93911 -100.53903,41.65378 -23.74851,23.78164 -39.11325,55.96916 -41.31136,91.72447 H 662.09738 V 475.36781 187.81203 Z M 281.9666,589.18392 c -11.32197,0 -21.55039,4.61716 -28.99527,12.05099 -7.38966,7.4007 -12.00681,17.64017 -12.00681,28.99527 0,11.32197 4.58402,21.55039 11.97367,28.95109 l 0.0221,0.0331 v -0.0331 c 7.43383,7.43384 17.67331,12.01785 28.99527,12.01785 11.32197,0 21.60562,-4.58401 28.99527,-12.01785 l 0.45288,-0.37556 c 7.15769,-7.35651 11.56497,-17.46343 11.56497,-28.57553 0,-11.3551 -4.58401,-21.59457 -12.01785,-28.99527 -7.3786,-7.43383 -17.66226,-12.05099 -28.98422,-12.05099 z m -41.47705,-0.45288 c -10.59294,10.59294 -17.18729,25.28388 -17.18729,41.49914 0,16.13794 6.59435,30.79574 17.22043,41.44391 h -0.0331 c 10.61503,10.62608 25.29492,17.1873 41.47705,17.1873 16.21526,0 30.86201,-6.56122 41.49914,-17.19834 0.17673,-0.17674 0.34242,-0.34242 0.51915,-0.55229 10.31679,-10.5819 16.66814,-25.02983 16.66814,-40.89162 0,-16.21526 -6.56122,-30.89516 -17.18729,-41.49914 -10.62608,-10.61503 -25.31702,-17.18729 -41.49914,-17.18729 -16.18213,0 -30.86202,6.57226 -41.47705,17.19833 z m 587.58229,0.45288 c 11.14523,0 21.20797,4.44042 28.57553,11.59811 l 0.41974,0.45288 c 7.43384,7.4007 12.01785,17.64017 12.01785,28.99527 0,11.27778 -4.58401,21.55039 -12.01785,28.95109 l 0.0331,0.0331 c -7.42279,7.4007 -17.67331,11.97367 -29.02841,11.97367 -11.32196,0 -21.59457,-4.58402 -28.99527,-11.97367 -7.42279,-7.43383 -12.0068,-17.67331 -12.0068,-28.99527 0,-11.3551 4.61715,-21.59458 12.0068,-28.99528 v -0.0331 -0.0331 c 7.41174,-7.38965 17.65122,-11.97366 28.99527,-11.97366 z m -41.44391,-0.45288 c 10.65922,-10.61503 25.30597,-17.18729 41.44391,-17.18729 15.90598,0 30.35391,6.35135 40.9358,16.66814 0.18778,0.13255 0.38661,0.34242 0.56334,0.51915 10.61503,10.59294 17.18729,25.28388 17.18729,41.49914 0,16.13794 -6.56121,30.82888 -17.18729,41.44391 h -0.0331 v 0 c -10.62607,10.62608 -25.28387,17.1873 -41.466,17.1873 -16.18212,0 -30.79574,-6.56122 -41.41077,-17.19834 l -0.0773,-0.0221 c -10.593,-10.62608 -17.18735,-25.28388 -17.18735,-41.42182 0,-16.21526 6.59435,-30.89516 17.18729,-41.49914 h 0.0442 z M 281.9666,540.82533 c -24.64322,0 -46.96682,10.02961 -63.11581,26.13441 v 0.0331 c -16.13794,16.14898 -26.1344,38.47258 -26.1344,63.1158 0,24.68741 9.99646,46.97787 26.1344,63.12685 l 0.41974,0.45288 c 16.10481,15.89493 38.26272,25.71467 62.69607,25.71467 24.6874,0 47.02204,-10.02961 63.18208,-26.16755 16.11585,-16.11585 26.11231,-38.4284 26.11231,-63.12685 0,-24.64322 -9.99646,-47.011 -26.11231,-63.1158 l -0.0221,-0.0331 -0.0331,0.0331 C 328.95551,550.85494 306.62086,540.82533 281.9666,540.82533 Z m -75.57549,13.67472 v 0 h -0.0221 c -19.34123,19.33019 -31.3149,46.10525 -31.3149,75.60863 0,29.55861 11.97367,56.27844 31.3149,75.61967 l 0.55229,0.5302 c 19.29705,19.0209 45.8512,30.79574 75.05634,30.79574 29.51443,0 56.25635,-11.97367 75.57549,-31.31489 19.4075,-19.36332 31.39222,-46.10525 31.39222,-75.61968 0,-29.47024 -11.97367,-56.20112 -31.39222,-75.60862 h 0.0331 c -19.34123,-19.34123 -46.06106,-31.31489 -75.61967,-31.31489 -29.47025,-0.0111 -56.20112,11.97366 -75.57549,31.30384 z m 546.08315,0 c 19.36332,-19.34122 46.10525,-31.31489 75.60863,-31.31489 29.51442,0 56.2453,11.97367 75.57548,31.31489 19.40751,19.39646 31.39222,46.13839 31.39222,75.60863 0,29.51443 -11.97367,56.25635 -31.39222,75.61967 -19.34122,19.34123 -46.06106,31.31489 -75.57548,31.31489 -29.50338,0 -56.24531,-11.97366 -75.60863,-31.31489 -19.34122,-19.34123 -31.31489,-46.06106 -31.31489,-75.61967 0,-29.22724 11.77484,-55.79243 30.82888,-75.05633 z"
     id="path2"
     inkscape:connector-curvature="0" /></svg>