<?xml version="1.0" encoding="UTF-8" standalone="no"?>
<svg
   xmlns:dc="http://purl.org/dc/elements/1.1/"
   xmlns:cc="http://creativecommons.org/ns#"
   xmlns:rdf="http://www.w3.org/1999/02/22-rdf-syntax-ns#"
   xmlns:svg="http://www.w3.org/2000/svg"
   xmlns="http://www.w3.org/2000/svg"
   xmlns:sodipodi="http://sodipodi.sourceforge.net/DTD/sodipodi-0.dtd"
   xmlns:inkscape="http://www.inkscape.org/namespaces/inkscape"
   xml:space="preserve"
   version="1.1"
   style="clip-rule:evenodd;fill-rule:evenodd;image-rendering:optimizeQuality;shape-rendering:geometricPrecision;text-rendering:geometricPrecision"
   viewBox="0 0 1000 503"
   x="0px"
   y="0px"
   id="svg22"
   sodipodi:docname="truck.svg"
   width="1000"
   height="503"
   inkscape:version="0.92.2 (5c3e80d, 2017-08-06)"><metadata
     id="metadata26"><rdf:RDF><cc:Work
         rdf:about=""><dc:format>image/svg+xml</dc:format><dc:type
           rdf:resource="http://purl.org/dc/dcmitype/StillImage" /><dc:title></dc:title></cc:Work></rdf:RDF></metadata><sodipodi:namedview
     pagecolor="#ffffff"
     bordercolor="#666666"
     borderopacity="1"
     objecttolerance="10"
     gridtolerance="10"
     guidetolerance="10"
     inkscape:pageopacity="0"
     inkscape:pageshadow="2"
     inkscape:window-width="640"
     inkscape:window-height="480"
     id="namedview24"
     showgrid="false"
     fit-margin-top="0"
     fit-margin-left="0"
     fit-margin-right="0"
     fit-margin-bottom="0"
     inkscape:zoom="0.22290437"
     inkscape:cx="417.5"
     inkscape:cy="145.625"
     inkscape:current-layer="svg22" /><defs
     id="defs4"><style
       type="text/css"
       id="style2">
   
    .fil0 {fill:black}
   
  </style></defs><g
     id="g16"
     transform="matrix(1.1976048,0,0,1,-7.1856288,-172)"><path
       class="fil0"
       d="m 711,675 c -36,0 -64,-29 -64,-65 0,-36 28,-65 64,-65 37,0 65,29 65,65 0,36 -28,65 -65,65 z"
       id="path6"
       inkscape:connector-curvature="0"
       style="fill:#000000" /><path
       class="fil0"
       d="M 556,597 H 225 C 211,494 60,494 46,597 H 25 C 15,597 6,588 6,578 V 468 h 550 z"
       id="path8"
       inkscape:connector-curvature="0"
       style="fill:#000000" /><path
       class="fil0"
       d="m 135,675 c -36,0 -64,-29 -64,-65 0,-36 28,-65 64,-65 37,0 65,29 65,65 0,36 -28,65 -65,65 z"
       id="path10"
       inkscape:connector-curvature="0"
       style="fill:#000000" /><path
       class="fil0"
       d="m 6,196 c 0,-14 10,-24 24,-24 h 501 c 14,0 25,11 25,24 V 442 H 6 C 6,326 6,335 6,196 Z"
       id="path12"
       inkscape:connector-curvature="0"
       style="fill:#000000" /><path
       class="fil0"
       d="M 801,597 C 787,494 636,494 622,597 h -40 c 0,-122 0,-245 0,-368 h 129 c 4,0 15,6 19,8 l 111,153 c 0,90 0,96 0,207 z M 729,255 h -86 c -12,0 -22,10 -22,22 v 91 c 0,12 10,22 22,22 h 183 z"
       id="path14"
       inkscape:connector-curvature="0"
       style="fill:#000000" /></g></svg>